<svg xmlns="http://www.w3.org/2000/svg" width="242" height="37" viewBox="0 0 242 37" fill="none"><g clip-path="url(#clip0_1376_5554)"><path d="M22.7195 12.2017C22.2612 13.0814 21.8277 13.9334 21.3788 14.7774C20.9099 15.6591 20.619 16.5948 20.5193 17.585C20.4923 17.8521 20.3842 17.9462 20.1359 17.9319C20.0418 17.9265 19.947 17.933 19.8525 17.933C14.5932 17.9331 9.33398 17.9333 4.07472 17.9328C3.43307 17.9328 3.52829 17.9071 3.37982 17.3152C3.14633 16.3844 2.83429 15.4603 2.4387 14.586C1.85391 13.2935 0.955605 12.131 0.729781 10.6921C0.482226 9.11479 0.667521 7.80456 2.15117 6.87502C2.76943 6.48767 3.47528 6.45837 4.18315 6.47421C6.16668 6.51861 7.93292 7.43239 9.81797 7.86954C10.145 7.94538 10.5288 8.17941 10.7885 7.75654C10.8635 7.63449 10.8976 7.38067 10.8238 7.29068C9.99005 6.27324 10.3092 5.03657 11.2274 4.31272C11.4179 4.16254 11.385 3.69779 11.3901 3.377C11.3909 3.32351 11.0522 3.20528 10.8788 3.21961C10.3527 3.26312 10.2891 2.98226 10.2955 2.55644C10.3017 2.1513 10.3181 1.81088 10.8608 1.88841C11.3146 1.95323 11.5067 1.76635 11.4394 1.31223C11.3809 0.917694 11.5956 0.842342 11.9389 0.841802C12.2884 0.841251 12.5414 0.888778 12.4771 1.32049C12.4079 1.78543 12.6199 1.91688 13.0644 1.89691C13.6018 1.87277 13.5941 1.91971 13.6202 2.61176C13.6363 3.03902 13.5409 3.26117 13.0548 3.2216C12.8743 3.2069 12.5313 3.32437 12.5219 3.40992C12.4898 3.70274 12.4608 4.1163 12.6301 4.29143C13.8406 5.54328 13.9258 6.10969 12.9855 7.44776C13.15 7.94212 13.471 8.07351 13.9685 7.92217C15.3767 7.49381 16.7829 7.05418 18.2062 6.68134C19.2397 6.4106 20.2991 6.33328 21.344 6.68588C22.4733 7.06698 23.0387 7.89973 23.2569 9.03047C23.4722 10.1459 23.1429 11.1623 22.7195 12.2017ZM4.11519 14.7149C4.19145 14.8146 4.2694 14.9131 4.34371 15.0142C4.77386 15.5996 5.22205 16.1826 5.93297 16.4305C6.15943 16.5095 6.61954 16.4742 6.68549 16.345C6.82999 16.0619 6.83283 15.6831 6.81445 15.3476C6.79694 15.0281 6.51923 15.0068 6.2469 15.0005C5.98281 14.9944 5.71219 14.9646 5.45828 14.8949C5.05448 14.7841 5.11811 14.432 5.1056 14.1213C5.09255 13.7969 5.29759 13.7764 5.5379 13.7802C5.82247 13.7847 6.10717 13.7813 6.42513 13.7813C6.33376 13.3447 6.26887 13.0347 6.20433 12.7264C7.1822 12.5186 7.38519 12.5822 7.51401 13.2411C7.61216 13.7431 7.8452 13.9266 8.34876 13.8883C8.54834 13.8731 8.85142 13.9526 8.94476 14.0951C9.0945 14.3238 9.10896 14.6408 9.20413 15.0123C8.81127 15.0123 8.51342 14.9884 8.22354 15.0259C8.12755 15.0383 7.97086 15.2181 7.98062 15.306C8.03887 15.83 8.67818 16.4235 9.22951 16.5078C9.7227 16.5833 10.1291 16.2957 10.4626 15.7426C11.0978 14.6893 11.03 13.5842 10.7234 12.4753C10.4824 11.6035 10.0935 10.7687 9.89931 9.88898C9.78029 9.34973 9.4829 9.1315 9.04522 8.96979C8.38361 8.72535 7.73444 8.42942 7.05407 8.25773C6.05802 8.00637 5.04634 7.75079 4.0278 7.67253C2.98436 7.59235 2.12039 8.30985 2.00778 9.19806C1.91892 9.89894 1.91696 10.6217 2.25456 11.272C2.845 12.4095 3.46829 13.5299 4.11519 14.7149ZM18.5288 14.8996C18.1865 14.9374 17.8389 14.951 17.5046 15.0246C17.3625 15.0559 17.1939 15.1872 17.132 15.3178C16.9724 15.6546 16.9065 16.038 17.1985 16.33C17.5143 16.6459 17.9007 16.5341 18.247 16.3526C18.4243 16.2597 18.6026 16.1339 18.7263 15.9796C19.2727 15.2978 19.8609 14.6382 20.3192 13.8996C21.0433 12.733 21.7603 11.5503 21.9976 10.1549C22.1296 9.37887 21.7873 8.38236 21.1889 8.03618C20.5706 7.67854 19.8735 7.50963 19.1911 7.67958C17.8579 8.01161 16.5389 8.4092 15.2322 8.83518C14.6064 9.03919 13.9535 9.30539 13.9821 10.1661C13.9841 10.2239 13.9369 10.282 13.919 10.3419C13.6386 11.2823 13.2891 12.2092 13.1 13.1676C12.9231 14.0638 12.9846 14.9808 13.5089 15.7992C13.8059 16.2628 14.1714 16.615 14.7709 16.5038C15.3694 16.3928 15.702 15.949 15.9343 15.4351C16.0435 15.1934 15.966 15.0008 15.6428 15.009C15.4699 15.0134 15.2919 15.0268 15.1252 14.9924C15.0263 14.972 14.8929 14.8834 14.8646 14.7964C14.7144 14.3352 15.0479 13.8791 15.5219 13.8756C16.3722 13.8694 16.218 13.9201 16.4502 13.1467C16.5006 12.979 16.5876 12.7103 16.6935 12.6917C17.0304 12.6327 17.3841 12.6699 17.7706 12.6699C17.6793 13.0855 17.6104 13.3989 17.526 13.7831C17.9056 13.7831 18.2346 13.7627 18.5586 13.7939C18.6764 13.8052 18.887 13.9607 18.8762 14.0144C18.8166 14.3091 18.7015 14.5927 18.5288 14.8996Z" fill="#BBBBBB"></path><path d="M139.355 19.7683C141.166 19.4269 141.975 18.2783 142.058 16.549C142.174 14.1194 142.147 11.6829 142.169 9.24918C142.172 8.9391 142.123 8.62411 142.06 8.31903C141.982 7.93835 141.662 7.81953 141.33 7.75073C141.193 7.72251 141.039 7.76853 140.908 7.73091C140.765 7.69001 140.638 7.59117 140.504 7.51759C140.639 7.43562 140.774 7.28246 140.909 7.28347C141.661 7.28911 142.413 7.35052 143.165 7.35554C143.665 7.35888 144.165 7.2858 144.665 7.27556C144.865 7.27147 145.066 7.34449 145.267 7.38241C145.274 7.43515 145.28 7.48788 145.287 7.54062C145.151 7.6056 145.02 7.7099 144.878 7.72916C143.982 7.85036 143.786 8.05579 143.784 8.9609C143.779 10.942 143.816 12.9239 143.769 14.9039C143.741 16.1061 143.644 17.3214 143.023 18.4042C142.218 19.8059 140.986 20.5487 139.391 20.7757C138.362 20.9222 137.361 20.8478 136.364 20.6032C134.604 20.1712 133.341 18.6954 133.092 16.9028C132.778 14.6339 132.97 12.3569 132.912 10.0843C132.902 9.66003 132.915 9.23522 132.909 8.81078C132.899 8.06228 132.597 7.77513 131.849 7.73122C131.644 7.71915 131.445 7.59889 131.243 7.52828C131.452 7.44173 131.661 7.28036 131.87 7.28116C132.953 7.28533 134.036 7.34081 135.119 7.35633C135.478 7.36146 135.837 7.27372 136.195 7.28243C136.352 7.28625 136.505 7.42528 136.661 7.50291C136.516 7.58173 136.377 7.71623 136.227 7.72982C135.546 7.79149 135.279 8.09476 135.277 8.91446C135.271 10.9113 135.277 12.9081 135.273 14.9049C135.271 15.9118 135.324 16.9133 135.718 17.8546C136.32 19.2968 137.626 19.9842 139.355 19.7683Z" fill="#BBBBBB"></path><path d="M80.4153 20.194C80.9193 20.072 81.0311 19.6692 81.0905 19.2913C81.4591 16.9457 81.7999 14.5958 82.1558 12.2481C82.2892 11.3683 82.4288 10.4892 82.5895 9.61413C82.6186 9.45578 82.7641 9.31875 82.8559 9.17188C82.9978 9.29202 83.1976 9.38372 83.273 9.5366C84.3274 11.6738 85.364 13.8198 86.4067 15.9628C86.672 16.508 86.9433 17.0503 87.2589 17.689C87.478 17.2638 87.6692 16.9143 87.841 16.5556C88.7419 14.6748 89.6386 12.792 90.5351 10.9092C90.7573 10.4425 90.9577 9.96456 91.2025 9.5103C91.2781 9.37001 91.4677 9.29095 91.6051 9.18386C91.6967 9.33677 91.8469 9.48091 91.8714 9.6439C92.2968 12.4707 92.7055 15.3001 93.1215 18.1283C93.176 18.4992 93.2407 18.8692 93.3178 19.2361C93.4542 19.8853 93.7841 20.1493 94.4643 20.2008C94.6616 20.2157 94.8556 20.274 95.0512 20.3124C95.0508 20.3676 95.0505 20.4229 95.0502 20.4781C94.9136 20.5103 94.7763 20.5731 94.6406 20.57C93.6202 20.5466 92.6 20.513 91.58 20.4761C91.3049 20.4662 91.2607 20.3949 91.321 20.0689C91.4147 19.5619 91.3664 19.0154 91.3023 18.495C91.102 16.8679 90.8668 15.2452 90.6417 13.6212C90.6339 13.5655 90.59 13.5147 90.5185 13.3744C90.4051 13.5721 90.3179 13.7055 90.2487 13.8476C89.2322 15.9335 88.2209 18.022 87.198 20.1047C87.1148 20.2741 86.9557 20.4062 86.8318 20.5556C86.6883 20.4046 86.4976 20.2771 86.4085 20.099C85.398 18.0801 84.4036 16.0533 83.4028 14.0296C83.3232 13.8686 83.2278 13.7154 83.0444 13.5792C82.9348 14.3911 82.8213 15.2024 82.7166 16.0148C82.5749 17.115 82.4546 18.2181 82.2961 19.3157C82.2098 19.9138 82.3777 20.1451 82.9949 20.2039C83.1722 20.2208 83.3414 20.3216 83.5144 20.3839C83.3421 20.4479 83.1709 20.5633 82.9973 20.5671C82.1313 20.5861 81.2647 20.5773 80.3983 20.5743C80.2463 20.5738 80.0943 20.5544 79.9423 20.5437C79.9247 20.4866 79.9072 20.4296 79.8896 20.3725C80.0523 20.3137 80.215 20.2549 80.4153 20.194Z" fill="#BBBBBB"></path><path d="M42.0674 9.17664C42.0655 9.70931 42.0794 10.1977 42.0516 10.6837C42.0448 10.8008 41.8998 10.91 41.8184 11.0229C41.7436 10.9123 41.6154 10.8076 41.6025 10.6901C41.4896 9.67032 41.017 8.89347 40.0402 8.52996C38.1424 7.82369 36.245 7.64851 34.4616 8.85035C33.441 9.53814 32.9574 10.5942 32.7179 11.7623C32.3827 13.3966 32.4574 15.0096 33.2031 16.5255C34.002 18.1493 35.3046 19.2176 37.0798 19.6108C38.2443 19.8687 39.4132 19.8173 40.5228 19.2697C41.2193 18.926 41.4942 18.2883 41.7778 17.6385C41.8341 17.5095 41.9717 17.4158 42.0719 17.3059C42.131 17.4522 42.2573 17.6082 42.2379 17.7434C42.1362 18.4536 42.036 19.1687 41.8509 19.8595C41.7869 20.0983 41.5138 20.3886 41.2785 20.4567C39.943 20.8433 38.5695 20.9746 37.1879 20.7857C36.2925 20.6632 35.3695 20.5657 34.5272 20.2658C31.9052 19.3323 30.3512 17.5026 30.0489 14.6707C29.8522 12.8279 30.2274 11.1608 31.3577 9.67913C32.4752 8.2142 34.0037 7.44434 35.7873 7.18568C37.7638 6.89905 39.7295 7.11369 41.6818 7.47072C42.0084 7.53045 42.2245 7.66445 42.1652 8.05809C42.1118 8.41274 42.0987 8.77345 42.0674 9.17664Z" fill="#BBBBBB"></path><path d="M53.9713 10.0969C55.4827 11.0781 56.2326 12.4374 56.3603 14.2079C56.4657 15.6697 56.1902 17.0223 55.4017 18.2308C54.5039 19.6069 53.195 20.4251 51.5547 20.6716C50.1161 20.8878 48.7049 20.8257 47.3764 20.1578C45.6555 19.2927 44.7477 17.8391 44.4358 15.9881C44.1134 14.0753 44.639 12.3829 45.9271 10.9537C46.74 10.0517 47.8225 9.56757 49.0063 9.36428C50.3862 9.12731 51.7572 9.20052 53.0825 9.70028C53.3747 9.81048 53.6538 9.95552 53.9713 10.0969ZM49.801 10.021C49.7098 10.0443 49.6196 10.081 49.5271 10.0887C48.3391 10.1878 47.464 10.797 47.012 11.8629C46.1935 13.7933 46.2712 15.7437 47.1767 17.6364C47.6082 18.5384 48.3012 19.2203 49.2286 19.617C51.1235 20.4278 53.0942 19.8588 53.8477 17.8064C54.4524 16.1591 54.4415 14.4727 53.8189 12.8432C53.1422 11.0722 51.8316 10.0737 49.801 10.021Z" fill="#BBBBBB"></path><path d="M156.26 16.7877C156.228 15.0804 156.201 13.4173 156.16 11.7544C156.151 11.3644 156.104 10.9749 156.064 10.5863C156.011 10.0743 155.8 9.87166 155.28 9.82222C155.139 9.80883 154.994 9.82297 154.856 9.79829C154.794 9.78715 154.69 9.69812 154.698 9.66824C154.717 9.59201 154.775 9.50133 154.843 9.46826C154.922 9.43001 155.028 9.44132 155.122 9.44118C156.123 9.4397 157.123 9.43615 158.124 9.44445C158.278 9.44573 158.432 9.50389 158.587 9.53575C158.592 9.58164 158.597 9.62752 158.602 9.67341C158.491 9.72043 158.383 9.79436 158.267 9.81005C157.584 9.9027 157.407 10.0873 157.396 10.7793C157.362 13.0084 157.337 15.2377 157.297 17.4668C157.28 18.4385 157.24 19.4099 157.2 20.3811C157.185 20.7565 156.998 20.8436 156.678 20.6348C156.574 20.5671 156.487 20.4717 156.398 20.3831C154.438 18.4269 152.472 16.476 150.522 14.5089C149.994 13.9753 149.516 13.3912 149.012 12.8328C148.952 12.7664 148.874 12.7159 148.701 12.5719C148.701 13.2759 148.69 13.8776 148.704 14.4788C148.724 15.3406 148.752 16.2024 148.795 17.0634C148.836 17.8746 148.886 18.6861 148.959 19.4949C149.004 19.9821 149.326 20.1858 149.8 20.2041C149.985 20.2113 150.168 20.2737 150.418 20.3245C150.082 20.6112 146.869 20.6767 146.154 20.4314C146.369 20.3249 146.488 20.2241 146.617 20.2091C147.371 20.1217 147.374 20.1289 147.525 19.4105C147.55 19.2887 147.56 19.1618 147.561 19.037C147.595 16.0999 147.626 13.1628 147.658 10.2257C147.659 10.0842 147.631 9.93487 147.667 9.80312C147.718 9.61965 147.816 9.44937 147.894 9.27344C148.051 9.35975 148.239 9.41516 148.36 9.53704C149.986 11.1783 151.609 12.8232 153.22 14.479C154.203 15.4887 155.165 16.5185 156.219 17.6264C156.236 17.3007 156.248 17.0663 156.26 16.7877Z" fill="#BBBBBB"></path><path d="M194.56 20.5669C193.097 20.5714 191.674 20.5714 190.251 20.5714C190.234 20.5029 190.217 20.4344 190.2 20.3658C190.354 20.3106 190.508 20.2057 190.66 20.2096C191.078 20.2202 191.267 19.9998 191.325 19.6307C191.373 19.3226 191.42 19.0102 191.421 18.6995C191.429 16.1058 191.427 13.5121 191.425 10.9184C191.425 10.05 191.257 9.88033 190.402 9.80852C190.276 9.79801 190.16 9.68642 190.039 9.6216C190.163 9.56145 190.288 9.44788 190.411 9.44993C191.131 9.46199 191.852 9.52507 192.572 9.52441C193.324 9.52371 194.081 9.4044 194.827 9.46014C195.47 9.50821 196.121 9.66968 196.731 9.88694C197.889 10.2997 198.311 11.6917 198.093 12.7326C197.934 13.4878 197.6 14.1504 197.012 14.6666C196.753 14.8945 196.48 15.1076 196.182 15.3537C197.134 16.5109 197.973 17.5794 198.868 18.599C199.296 19.0854 199.801 19.5168 200.326 19.8985C200.585 20.0872 200.97 20.1004 201.294 20.2068C201.398 20.2413 201.489 20.3196 201.585 20.3779C201.494 20.4427 201.404 20.5621 201.312 20.5636C200.556 20.5757 199.793 20.6339 199.047 20.5459C198.035 20.4262 197.416 19.6759 196.848 18.9151C196.258 18.1265 195.689 17.3226 195.113 16.5243C194.809 16.1037 193.975 15.8648 193.491 16.0754C193.422 16.1058 193.336 16.2067 193.336 16.275C193.336 17.358 193.331 18.4415 193.366 19.5237C193.382 20.022 193.717 20.225 194.201 20.201C194.326 20.1947 194.46 20.1811 194.577 20.2159C194.861 20.3005 194.87 20.428 194.56 20.5669ZM193.28 10.4605C193.261 11.1321 193.223 11.8037 193.227 12.4751C193.23 13.2243 193.271 13.9733 193.309 14.796C193.352 14.8902 193.369 15.0215 193.442 15.0727C193.938 15.4194 195.082 15.2671 195.569 14.894C196.442 14.2239 196.574 12.1666 195.856 11.1591C195.277 10.3453 194.237 10.006 193.28 10.4605Z" fill="#BBBBBB"></path><path d="M100.21 9.43917C100.894 9.49613 101.539 9.51206 102.169 9.61753C104.335 9.98019 104.422 12.3954 103.309 13.5464C103.105 13.7566 102.825 13.8921 102.544 14.087C103.147 14.4741 103.565 14.713 103.95 14.9961C104.837 15.6471 105.271 16.5523 105.195 17.6343C105.112 18.8186 104.474 19.6876 103.396 20.1939C102.59 20.573 101.731 20.6422 100.838 20.5955C99.739 20.538 98.6344 20.5801 97.5321 20.5752C97.3518 20.5744 97.1717 20.5531 96.9915 20.5412C96.979 20.4975 96.9664 20.4539 96.9538 20.4103C97.0663 20.3414 97.1714 20.2327 97.2925 20.2103C97.9605 20.0866 98.1095 19.9394 98.1205 19.2709C98.1571 17.0573 98.1951 14.8436 98.2123 12.6299C98.2175 11.9577 98.1696 11.2841 98.1224 10.6128C98.0831 10.0533 97.8446 9.84073 97.2951 9.81764C97.2007 9.81367 97.0996 9.8333 97.0135 9.80538C96.9207 9.77525 96.8418 9.70208 96.7568 9.64769C96.8448 9.58007 96.9291 9.46075 97.0215 9.45406C97.3662 9.4291 97.7137 9.43988 98.0601 9.43946C98.7615 9.43861 99.4628 9.43919 100.21 9.43917ZM102.186 15.4303C101.673 14.9476 101.043 14.822 100.366 14.8191C100.096 14.818 100.013 14.9452 100.014 15.1945C100.02 16.3718 99.9942 17.55 100.034 18.726C100.044 19.026 100.167 19.4648 100.384 19.5908C101.387 20.1744 102.953 19.9483 103.225 18.5451C103.455 17.3603 103.1 16.3281 102.186 15.4303ZM100.014 10.9207C100.014 11.8304 99.9991 12.7407 100.029 13.6494C100.035 13.817 100.209 14.1066 100.332 14.122C101.181 14.228 101.923 14.0883 102.236 13.1714C102.354 12.8274 102.404 12.4274 102.36 12.068C102.254 11.1891 101.807 10.2994 100.788 10.1751C100.131 10.0949 100.027 10.1502 100.014 10.9207Z" fill="#BBBBBB"></path><path d="M76.3803 17.724C76.446 17.0782 76.5456 16.4733 76.5619 15.8662C76.5912 14.7822 76.5822 13.6968 76.5662 12.6123C76.5556 11.8925 76.5083 11.1731 76.4711 10.4539C76.4483 10.0125 76.1123 9.90402 75.7641 9.82856C75.6275 9.79895 75.4794 9.82292 75.342 9.79527C75.2821 9.78323 75.1855 9.68995 75.1941 9.65596C75.2129 9.58189 75.2785 9.50807 75.3444 9.46154C75.3886 9.43029 75.4661 9.44142 75.5287 9.44138C76.6078 9.44069 77.6869 9.43588 78.7658 9.44969C78.8745 9.45108 78.9817 9.56668 79.0896 9.62928C79.0142 9.68955 78.9466 9.78694 78.8624 9.80431C78.0569 9.97055 77.8999 10.1446 77.8964 10.9862C77.8894 12.684 77.9364 14.3834 77.8741 16.079C77.8464 16.8316 77.6913 17.6049 77.4474 18.319C76.9233 19.8537 75.688 20.5866 74.1594 20.7326C73.2874 20.8159 72.3556 20.7407 71.5088 20.5174C69.9815 20.1148 68.9778 18.7666 68.9228 17.1789C68.8528 15.1561 68.8456 13.131 68.8206 11.1067C68.8077 10.0553 68.703 9.93129 67.6668 9.80867C67.5504 9.7949 67.4415 9.71804 67.3291 9.67044C67.3331 9.62646 67.3371 9.58248 67.3411 9.5385C67.4644 9.50595 67.5885 9.44284 67.7108 9.44598C68.353 9.46247 68.9946 9.51452 69.6366 9.51712C70.1366 9.51916 70.6367 9.46423 71.137 9.44024C71.3098 9.43196 71.4878 9.41746 71.655 9.44951C71.7716 9.47187 71.874 9.56861 71.9828 9.63213C71.8715 9.69301 71.7655 9.79253 71.6481 9.80832C71.0194 9.89292 70.8121 10.0847 70.8091 10.712C70.7995 12.6928 70.7673 14.6747 70.822 16.654C70.8488 17.6263 71.0833 18.5798 71.8726 19.2782C73.2804 20.5239 76.022 19.9602 76.3803 17.724Z" fill="#BBBBBB"></path><path d="M123.486 18.842C123.757 19.2444 123.948 19.6958 124.285 19.9622C124.585 20.1988 125.047 20.2302 125.421 20.4473C124.11 20.5714 122.816 20.6552 121.496 20.4282C121.877 20.1658 121.831 19.9066 121.69 19.5654C121.362 18.7705 121.102 17.9476 120.774 17.1529C120.71 16.9974 120.464 16.8249 120.296 16.819C119.384 16.7865 118.47 16.7937 117.557 16.8148C117.42 16.818 117.208 16.9362 117.163 17.0524C116.84 17.8823 116.535 18.7198 116.261 19.5668C116.121 19.9988 116.273 20.1575 116.723 20.204C116.889 20.2212 117.049 20.2941 117.212 20.3416C117.2 20.4003 117.188 20.459 117.176 20.5177C115.923 20.5177 114.669 20.5177 113.415 20.5177C113.394 20.473 113.372 20.4283 113.351 20.3836C113.481 20.3227 113.61 20.2122 113.742 20.2096C114.345 20.1979 114.757 19.9278 114.983 19.3733C115.761 17.4601 116.54 15.5472 117.314 13.6323C117.842 12.327 118.361 11.0183 118.885 9.71139C118.908 9.65323 118.926 9.58719 118.966 9.54256C119.082 9.41349 119.209 9.29349 119.331 9.16992C119.467 9.30728 119.657 9.42088 119.731 9.58612C120.043 10.2869 120.322 11.002 120.609 11.7135C121.563 14.0788 122.516 16.4448 123.486 18.842ZM118.768 12.7627C118.383 13.7952 117.999 14.8278 117.593 15.9177C118.519 15.9177 119.358 15.9177 120.304 15.9177C119.864 14.7128 119.442 13.5587 118.971 12.2737C118.876 12.5139 118.838 12.6097 118.768 12.7627Z" fill="#BBBBBB"></path><path d="M171.755 13.3169C172.315 14.7897 172.867 16.2268 173.419 17.6638C173.46 17.6642 173.5 17.6646 173.541 17.665C173.733 17.1959 173.932 16.7291 174.118 16.2573C174.868 14.3501 175.621 12.4436 176.36 10.5317C176.561 10.0105 176.454 9.88198 175.89 9.8104C175.755 9.79324 175.63 9.69881 175.5 9.63993C175.638 9.57327 175.775 9.45139 175.914 9.44886C176.852 9.43184 177.79 9.43355 178.728 9.44792C178.855 9.44986 178.98 9.55643 179.106 9.61455C178.988 9.68203 178.874 9.79809 178.75 9.80842C178.268 9.84892 177.982 10.1278 177.791 10.5342C177.392 11.3849 176.988 12.2334 176.607 13.0923C175.852 14.7954 175.113 16.5051 174.366 18.2117C174.064 18.8998 173.776 19.594 173.449 20.2697C173.357 20.4593 173.149 20.5929 172.995 20.7521C172.854 20.6026 172.657 20.4769 172.582 20.2998C171.856 18.5849 171.152 16.8603 170.437 15.1405C169.848 13.7244 169.245 12.3144 168.664 10.8951C168.369 10.1762 167.875 9.78441 167.081 9.80586C167.022 9.80744 166.963 9.77473 166.738 9.71087C166.965 9.5791 167.082 9.45227 167.199 9.45298C167.873 9.45711 168.547 9.50825 169.22 9.50996C169.752 9.51131 170.284 9.46205 170.815 9.44025C170.972 9.43382 171.134 9.42423 171.286 9.45487C171.373 9.47251 171.445 9.56784 171.524 9.6282C171.445 9.68869 171.375 9.7844 171.287 9.80413C170.556 9.96863 170.532 9.9887 170.78 10.6842C171.091 11.5538 171.423 12.4159 171.755 13.3169Z" fill="#BBBBBB"></path><path d="M183.58 20.5769C182.572 20.5767 181.612 20.5833 180.652 20.569C180.506 20.5669 180.361 20.4679 180.216 20.4137C180.35 20.3425 180.489 20.2042 180.618 20.2119C181.079 20.2394 181.241 19.9677 181.294 19.5944C181.351 19.1924 181.399 18.785 181.401 18.3798C181.41 15.9435 181.406 13.5071 181.405 11.0707C181.405 10.0718 181.25 9.90598 180.263 9.8111C180.15 9.80019 180.04 9.74938 179.929 9.71708C179.925 9.66118 179.921 9.60528 179.917 9.54938C180.087 9.5128 180.258 9.44236 180.427 9.44497C181.857 9.46689 183.286 9.52501 184.715 9.52421C185.475 9.52378 186.235 9.42829 187.062 9.37109C186.945 10.1353 186.977 10.8827 186.776 11.5917C186.718 11.5885 186.659 11.5853 186.6 11.5821C186.57 11.4866 186.529 11.3932 186.512 11.2955C186.414 10.7143 186.233 10.4823 185.651 10.41C185.014 10.331 184.369 10.3277 183.727 10.2908C183.432 10.2738 183.295 10.4035 183.296 10.7065C183.303 11.7439 183.302 12.7813 183.296 13.8187C183.294 14.1104 183.405 14.2641 183.711 14.2506C184.479 14.2167 185.249 14.2093 186.013 14.1386C186.233 14.1182 186.437 13.919 186.803 13.7165C186.73 14.6439 186.666 15.4645 186.601 16.2851C186.539 16.2937 186.476 16.3022 186.413 16.3108C186.353 16.1383 186.259 15.9696 186.238 15.7924C186.181 15.3038 185.871 15.1316 185.436 15.1056C184.857 15.0711 184.278 15.0243 183.7 15.0371C183.566 15.04 183.322 15.262 183.322 15.3827C183.325 16.6204 183.335 17.8607 183.432 19.0933C183.45 19.3128 183.861 19.6414 184.121 19.6738C184.753 19.7524 185.407 19.7236 186.045 19.667C186.588 19.6188 186.895 19.2562 186.99 18.7134C187.013 18.5785 187.101 18.4548 187.159 18.3259C187.203 18.3313 187.248 18.3368 187.292 18.3422C187.314 18.4668 187.362 18.5927 187.355 18.7158C187.331 19.1683 187.299 19.6209 187.251 20.0714C187.21 20.4553 186.966 20.6608 186.591 20.6609C186.154 20.661 185.717 20.6097 185.279 20.5973C184.729 20.5817 184.178 20.5829 183.58 20.5769Z" fill="#BBBBBB"></path><path d="M236.612 18.2111C236.645 18.7099 236.65 19.1669 236.72 19.6136C236.791 20.0659 237.145 20.1828 237.557 20.2033C237.774 20.2141 237.988 20.2737 238.203 20.3112C238.195 20.3759 238.187 20.4405 238.178 20.5052C236.635 20.5052 235.091 20.5052 233.548 20.5052C233.531 20.4569 233.515 20.4086 233.499 20.3604C233.64 20.3067 233.778 20.2236 233.925 20.2047C234.452 20.1363 234.603 19.9796 234.627 19.4552C234.653 18.8767 234.68 18.2978 234.723 17.7204C234.816 16.507 234.543 15.4054 233.854 14.3832C233.041 13.177 232.288 11.9306 231.508 10.7027C231.189 10.2013 230.758 9.86875 230.147 9.80098C230.069 9.79237 229.999 9.71259 229.842 9.61228C230.012 9.53455 230.112 9.44922 230.211 9.45058C230.759 9.45814 231.307 9.50296 231.855 9.50325C232.339 9.50351 232.823 9.4604 233.308 9.4404C233.433 9.43522 233.566 9.42258 233.683 9.45504C233.772 9.47935 233.841 9.57053 233.919 9.63195C233.856 9.69108 233.801 9.78724 233.728 9.80258C233.483 9.8544 233.325 9.95779 233.468 10.2189C234.284 11.7125 235.108 13.2013 235.993 14.8066C236.303 14.2683 236.556 13.8467 236.791 13.4155C237.249 12.5767 237.7 11.7338 238.148 10.8893C238.22 10.7529 238.26 10.5993 238.315 10.4537C238.431 10.145 238.402 9.90765 238.034 9.79334C237.956 9.76899 237.908 9.64978 237.777 9.4915C239.018 9.4915 240.152 9.4915 241.286 9.4915C241.303 9.52518 241.32 9.55885 241.337 9.59253C241.258 9.66257 241.183 9.78953 241.101 9.79373C240.379 9.8307 239.896 10.2504 239.553 10.8137C238.627 12.3365 237.652 13.8401 236.873 15.4368C236.553 16.0914 236.683 16.9656 236.614 17.7403C236.601 17.8808 236.612 18.0233 236.612 18.2111Z" fill="#BBBBBB"></path><path d="M220.248 9.43972C222.398 9.47098 224.504 9.51101 226.61 9.52583C227.045 9.5289 227.485 9.46232 227.914 9.38269C228.237 9.32285 228.396 9.37872 228.388 9.73591C228.377 10.2229 228.395 10.7106 228.38 11.1974C228.375 11.3542 228.305 11.509 228.251 11.715C228.143 11.6346 228.06 11.6043 228.056 11.5645C227.93 10.5276 227.117 10.47 226.349 10.3934C225.881 10.3467 225.405 10.3947 224.933 10.3811C224.637 10.3725 224.509 10.4736 224.51 10.7859C224.517 13.5679 224.488 16.3502 224.529 19.1317C224.541 20.0013 224.767 20.2638 225.583 20.2082C225.744 20.1973 225.912 20.2859 226.077 20.3285C226.074 20.3805 226.072 20.4324 226.069 20.4843C225.917 20.515 225.765 20.5714 225.613 20.5723C224.338 20.5794 223.063 20.5764 221.788 20.5757C221.709 20.5757 221.623 20.5881 221.554 20.56C221.477 20.5282 221.416 20.457 221.348 20.403C221.421 20.3379 221.483 20.2334 221.566 20.2137C222.446 20.0048 222.522 19.9262 222.524 19.0054C222.53 16.7892 222.526 14.573 222.526 12.3569C222.526 11.8382 222.515 11.3193 222.529 10.8009C222.536 10.5029 222.431 10.367 222.12 10.3825C221.305 10.4233 220.485 10.4079 219.678 10.5097C219.41 10.5436 219.164 10.8499 218.936 11.0622C218.81 11.1792 218.744 11.3599 218.651 11.5118C218.608 11.5032 218.564 11.4946 218.52 11.486C218.501 11.3455 218.448 11.2 218.468 11.0653C218.544 10.5578 218.64 10.0532 218.734 9.54861C218.783 9.28649 218.928 9.25171 219.184 9.31342C219.515 9.39322 219.863 9.40085 220.248 9.43972Z" fill="#BBBBBB"></path><path d="M208.158 11.2211C208.097 11.487 208.037 11.7095 207.976 11.932C207.883 11.7363 207.754 11.5497 207.703 11.3436C207.33 9.84262 205.256 9.63338 204.488 10.5917C204.042 11.1477 204.049 12.0043 204.663 12.5841C205.332 13.217 206.063 13.7868 206.775 14.3736C207.73 15.1593 208.469 16.0973 208.52 17.3701C208.598 19.2995 207.37 20.5688 205.419 20.7406C204.636 20.8096 203.825 20.6781 203.038 20.5613C202.419 20.4694 202.286 20.2536 202.301 19.6304C202.315 19.0517 202.354 18.4731 202.404 17.8964C202.414 17.7784 202.524 17.6691 202.588 17.5559C202.629 17.567 202.671 17.5782 202.712 17.5894C202.765 17.8424 202.814 18.0965 202.873 18.3483C203.049 19.1072 203.477 19.6525 204.239 19.8839C205.064 20.134 205.829 20.0438 206.453 19.3944C207.09 18.7315 207.028 17.6168 206.266 16.8631C205.7 16.3031 205.079 15.7957 204.463 15.2889C203.475 14.4765 202.734 13.5349 202.594 12.2044C202.498 11.2852 203.199 10.082 204.179 9.63504C205.398 9.07939 206.657 9.17277 207.909 9.48617C208.054 9.52234 208.224 9.7929 208.233 9.96311C208.256 10.3653 208.189 10.7725 208.158 11.2211Z" fill="#BBBBBB"></path><path d="M8.41345 18.9711C12.3325 18.9712 16.2043 18.9708 20.0762 18.9717C20.6988 18.9719 20.7064 18.9748 20.7006 19.5926C20.6899 20.7241 20.8395 20.5725 19.7302 20.5737C14.4419 20.5793 9.15357 20.5764 3.86524 20.5757C3.21739 20.5757 3.21043 20.5732 3.21611 19.9315C3.22583 18.833 3.08658 18.9799 4.16386 18.9732C5.56458 18.9646 6.9654 18.9711 8.41345 18.9711Z" fill="#BBBBBB"></path><path d="M59.7435 13.9703C59.7125 12.8103 59.691 11.6971 59.646 10.5849C59.6253 10.0705 59.3718 9.85087 58.8399 9.81788C58.7456 9.81204 58.6425 9.82969 58.5597 9.79633C58.4869 9.76704 58.437 9.68145 58.377 9.62072C58.4426 9.56459 58.5057 9.50499 58.5753 9.45436C58.5971 9.43851 58.6366 9.44445 58.6679 9.44444C60.0153 9.44405 61.3628 9.44045 62.7101 9.45175C62.8073 9.45256 62.9036 9.56232 63.0004 9.62143C62.9087 9.68507 62.8249 9.776 62.7234 9.8052C62.6063 9.83886 62.4724 9.80829 62.3478 9.82273C62.0062 9.8623 61.7462 9.99143 61.7215 10.391C61.7041 10.6709 61.6391 10.9494 61.6382 11.2286C61.631 13.4462 61.6325 15.6638 61.6368 17.8814C61.6372 18.099 61.6548 18.3204 61.6973 18.5335C61.894 19.5194 61.8921 19.5668 62.848 19.6864C63.4456 19.7612 64.0677 19.6933 64.6738 19.6358C65.2746 19.5788 65.5358 19.1312 65.6974 18.6056C65.7386 18.4716 65.8134 18.3479 65.9452 18.2439C66.1353 18.9963 66.1041 19.7509 65.7384 20.372C65.5962 20.6136 64.9834 20.653 64.584 20.6557C63.3907 20.6638 62.1971 20.6021 61.0034 20.5797C60.3106 20.5667 59.6172 20.5823 58.9243 20.5727C58.7689 20.5705 58.6143 20.5168 58.4593 20.4868C58.4552 20.4435 58.4511 20.4001 58.4469 20.3568C58.5792 20.3055 58.7076 20.2272 58.8445 20.2077C59.4605 20.1201 59.6324 19.9426 59.6461 19.2915C59.683 17.5336 59.7116 15.7755 59.7435 13.9703Z" fill="#BBBBBB"></path><path d="M151.277 29.7729C150.565 31.8342 149.87 33.8637 149.175 35.8932C149.14 35.9969 149.123 36.1114 149.068 36.2028C149.002 36.3126 148.903 36.403 148.819 36.5017C148.727 36.4046 148.597 36.3233 148.549 36.2079C147.995 34.8963 147.454 33.579 146.908 32.2645C146.8 32.0066 146.68 31.7538 146.511 31.3748C146.33 31.8268 146.19 32.1767 146.049 32.5262C145.563 33.7315 145.081 34.9388 144.584 36.1392C144.526 36.2792 144.376 36.3814 144.269 36.5011C144.178 36.3672 144.051 36.2453 144.001 36.0975C143.351 34.1684 142.711 32.2362 142.072 30.3034C141.907 29.8057 141.741 29.3164 141.148 29.1199C141.989 29.1199 142.83 29.1199 143.671 29.1199C143.197 29.3068 143.261 29.6317 143.375 30.007C143.772 31.3076 144.15 32.6137 144.537 33.9171C144.558 33.988 144.599 34.0529 144.682 34.228C144.872 33.7479 145.033 33.3594 145.18 32.9655C145.601 31.8371 146.016 30.7065 146.435 29.577C146.462 29.5036 146.483 29.4239 146.527 29.3621C146.596 29.2665 146.683 29.1838 146.763 29.0957C146.859 29.188 146.996 29.2627 147.044 29.3753C147.352 30.0947 147.64 30.8228 147.935 31.5473C148.261 32.344 148.588 33.1401 148.915 33.9357C148.939 33.9929 148.978 34.0439 149.068 34.1964C149.41 33.0775 149.714 32.085 150.016 31.0918C150.116 30.7626 150.205 30.4302 150.306 30.1014C150.431 29.6953 150.529 29.305 149.936 29.1299C150.617 29.1299 151.298 29.1299 151.956 29.1299C151.744 29.3259 151.518 29.5335 151.277 29.7729Z" fill="#BBBBBB"></path><path d="M165.305 9.49904C165.248 9.62041 165.173 9.78681 165.073 9.80298C164.386 9.91449 164.205 10.0876 164.204 10.7773C164.199 13.5745 164.197 16.3717 164.205 19.1689C164.208 19.9902 164.42 20.1775 165.245 20.2032C165.419 20.2087 165.592 20.2601 165.765 20.2903C165.771 20.3376 165.777 20.3849 165.784 20.4322C165.673 20.4792 165.563 20.5664 165.453 20.5671C164.068 20.5758 162.683 20.5737 161.298 20.5674C161.215 20.5671 161.132 20.5086 160.906 20.4234C161.158 20.3171 161.294 20.2104 161.432 20.2099C162.019 20.2077 162.169 20.0418 162.206 19.3366C162.268 18.1471 162.29 16.9551 162.307 15.7639C162.323 14.6483 162.322 13.5323 162.306 12.4168C162.297 11.7758 162.255 11.1347 162.207 10.4952C162.176 10.0691 161.899 9.8703 161.493 9.81732C161.335 9.79673 161.18 9.75637 161.026 9.63484C161.713 9.35306 162.412 9.46368 163.12 9.50921C163.835 9.55515 164.557 9.49066 165.305 9.49904Z" fill="#BBBBBB"></path><path d="M108.333 13.9685C108.332 12.8832 108.337 11.8451 108.331 10.8071C108.326 10.0805 108.145 9.8932 107.442 9.80633C107.333 9.79285 107.236 9.68371 107.133 9.61881C107.242 9.55932 107.352 9.44736 107.46 9.44905C108.055 9.45839 108.65 9.51673 109.245 9.51695C109.809 9.51715 110.372 9.46228 110.935 9.44055C111.103 9.43409 111.272 9.45778 111.44 9.46766C111.459 9.52119 111.478 9.57472 111.497 9.62824C111.369 9.69045 111.246 9.79169 111.112 9.80827C110.453 9.89023 110.328 10.0158 110.318 10.6629C110.287 12.7514 110.242 14.8399 110.229 16.9285C110.224 17.774 110.282 18.6203 110.324 19.4656C110.346 19.9272 110.636 20.1685 111.133 20.2C111.377 20.2154 111.618 20.2631 111.964 20.3102C111.597 20.6022 107.945 20.6824 107.106 20.3944C107.237 20.3297 107.367 20.2097 107.497 20.2102C107.975 20.212 108.237 20.0304 108.246 19.5244C108.268 18.2228 108.306 16.9215 108.331 15.6199C108.341 15.0854 108.333 14.5504 108.333 13.9685Z" fill="#BBBBBB"></path><path d="M214.615 10.1602C214.563 10.4097 214.497 10.6242 214.496 10.8389C214.489 13.5729 214.488 16.3069 214.493 19.041C214.495 20.0612 214.818 20.2695 215.597 20.2071C215.747 20.195 215.904 20.2713 216.059 20.3069C216.062 20.3535 216.065 20.4001 216.068 20.4467C215.94 20.4895 215.811 20.5686 215.683 20.5695C214.345 20.5784 213.007 20.5768 211.67 20.571C211.556 20.5705 211.443 20.5187 211.311 20.371C211.437 20.3151 211.562 20.2157 211.691 20.2107C212.279 20.1876 212.438 20.1769 212.494 19.321C212.568 18.1805 212.581 17.0354 212.597 15.8919C212.613 14.7451 212.612 13.5977 212.596 12.4509C212.588 11.8101 212.543 11.1693 212.499 10.5295C212.468 10.0738 212.223 9.88133 211.676 9.80964C211.555 9.79375 211.443 9.70283 211.327 9.64645C211.447 9.57806 211.568 9.45023 211.687 9.45134C212.266 9.45672 212.845 9.51795 213.423 9.51824C213.97 9.51852 214.517 9.46592 215.064 9.44058C215.19 9.43477 215.322 9.42272 215.439 9.45589C215.526 9.48048 215.594 9.57363 215.67 9.63623C215.589 9.69433 215.515 9.76865 215.426 9.80747C215.164 9.921 214.896 10.0204 214.615 10.1602Z" fill="#BBBBBB"></path><path d="M58.5058 36.3392C57.7592 36.3392 57.0583 36.3392 56.3573 36.3392C56.3504 36.3027 56.3436 36.2662 56.3367 36.2296C56.4361 36.1754 56.5546 36.1401 56.6306 36.0629C56.7671 35.9244 56.9702 35.7686 56.9842 35.6062C57.0513 34.8263 57.0792 34.042 57.0929 33.2587C57.1091 32.3309 57.0973 31.4025 57.0965 30.4744C57.0956 29.5003 57.0893 29.4922 56.2026 29.1313C57.1555 29.1313 58.1084 29.1313 59.0613 29.1313C58.4415 29.2361 58.3898 29.6709 58.394 30.1745C58.3982 30.6904 58.3276 31.2077 58.3482 31.7221C58.3533 31.8487 58.5825 32.068 58.7137 32.0718C59.7212 32.1013 60.73 32.0965 61.7379 32.0755C61.8418 32.0734 62.0267 31.898 62.0299 31.7983C62.0483 31.2342 61.9885 30.6666 62.0224 30.1042C62.0528 29.5996 61.8661 29.3318 61.3726 29.2618C61.304 29.252 61.2385 29.2204 61.1818 29.1191C62.1454 29.1191 63.1091 29.1191 64.0727 29.1191C63.2668 29.2978 63.3294 29.9051 63.3332 30.4958C63.3416 31.8014 63.3282 33.1072 63.3403 34.4128C63.344 34.8183 63.3654 35.2309 63.4503 35.6249C63.4857 35.7888 63.6921 35.9355 63.8511 36.0467C63.9693 36.1293 64.1364 36.1422 64.2706 36.2824C63.3046 36.2824 62.3386 36.2824 61.2735 36.2824C61.4388 36.1817 61.5552 36.1421 61.6246 36.0619C61.7658 35.8987 61.9752 35.7218 61.9917 35.5359C62.0622 34.7404 62.0683 33.9393 62.1075 33.1408C62.1239 32.8061 61.9999 32.6508 61.646 32.6554C60.7009 32.6676 59.7553 32.6697 58.8103 32.6543C58.4323 32.6482 58.3062 32.8122 58.3242 33.1662C58.3648 33.9645 58.3874 34.7637 58.4276 35.5621C58.4415 35.8382 58.5539 36.0376 58.8778 36.0634C59.0416 36.0765 59.2003 36.1511 59.3614 36.1979C59.3595 36.245 59.3576 36.2921 59.3558 36.3392C59.0877 36.3392 58.8196 36.3392 58.5058 36.3392Z" fill="#BBBBBB"></path><path d="M106.732 34.1453C105.937 31.9528 107.052 29.5875 109.224 29.0441C110.932 28.6167 113.059 29.0371 113.935 30.5868C115.065 32.5871 114.26 35.9898 111.165 36.4462C110.331 36.5692 109.542 36.5093 108.767 36.2203C107.785 35.8536 107.138 35.1365 106.732 34.1453ZM110.283 35.8682C111.157 36.0551 111.947 35.7531 112.418 35.0672C113.236 33.8763 113.292 31.158 111.72 29.954C110.571 29.074 108.811 29.3761 108.255 30.636C107.889 31.4658 107.795 32.3152 107.961 33.1979C108.206 34.5061 108.818 35.5101 110.283 35.8682Z" fill="#BBBBBB"></path><path d="M163 31.4769C163.683 29.3591 165.691 28.7029 167.477 28.9233C167.875 28.9724 168.277 29.0808 168.65 29.2288C169.772 29.6739 170.446 30.5163 170.663 31.6963C171.091 34.0231 169.785 36.1383 167.436 36.4466C166.159 36.6142 164.992 36.441 164.032 35.5453C162.841 34.4342 162.576 33.0529 163 31.4769ZM167.391 29.5821C167.269 29.552 167.148 29.5215 167.026 29.4918C166.275 29.3083 164.991 29.6741 164.605 30.5964C164.009 32.0217 164.103 33.368 164.864 34.6843C165.203 35.2687 165.73 35.6237 166.373 35.8127C167.644 36.1868 168.726 35.6458 169.084 34.3695C169.251 33.7776 169.328 33.1287 169.285 32.5168C169.196 31.252 168.712 30.1773 167.391 29.5821Z" fill="#BBBBBB"></path><path d="M131.747 33.9965C131.862 34.0976 131.955 34.1765 132.152 34.3433C132.152 33.9981 132.158 33.7572 132.151 33.5167C132.123 32.5449 132.078 31.5735 132.064 30.6016C132.048 29.518 132.06 29.5178 131.012 29.1193C131.944 29.1193 132.75 29.1193 133.557 29.1193C132.886 29.3004 132.911 29.8087 132.906 30.3319C132.887 32.2473 132.849 34.1625 132.811 36.0776C132.808 36.2081 132.741 36.3373 132.703 36.4671C132.565 36.4182 132.386 36.4084 132.293 36.3145C130.961 34.9781 129.641 33.6309 128.319 32.2849C128.003 31.9631 127.692 31.6363 127.306 31.2371C127.271 31.4598 127.24 31.5606 127.242 31.6606C127.271 32.9158 127.298 34.1711 127.341 35.4258C127.353 35.7725 127.441 36.0852 127.902 36.0762C127.996 36.0744 128.091 36.1642 128.174 36.2873C127.334 36.2873 126.493 36.2873 125.644 36.2873C125.657 36.2378 125.661 36.187 125.672 36.1856C126.401 36.0928 126.396 35.5855 126.398 35.0147C126.405 33.1308 126.448 31.2469 126.491 29.3633C126.494 29.2131 126.597 29.0651 126.654 28.916C126.797 28.9948 126.97 29.0446 127.079 29.1567C128.632 30.7576 130.177 32.367 131.747 33.9965Z" fill="#BBBBBB"></path><path d="M40.247 32.3033C40.9532 32.9051 41.6358 33.4833 42.2504 34.004C42.2504 33.5955 42.262 32.9521 42.2472 32.3094C42.232 31.652 42.176 30.9955 42.1646 30.3381C42.1492 29.4502 42.1601 29.45 41.3365 29.1312C42.1383 29.1312 42.9401 29.1312 43.742 29.1312C42.8195 29.3385 43.025 30.0714 43.0129 30.6987C42.9784 32.4878 42.95 34.2771 42.913 36.0662C42.9101 36.2098 42.8595 36.3525 42.81 36.6019C40.8138 34.9354 39.2056 33.0317 37.3852 31.2083C37.3668 31.4013 37.3393 31.5404 37.3426 31.6788C37.371 32.8864 37.3977 34.0942 37.4412 35.3013C37.4555 35.6995 37.5718 36.048 38.0648 36.0947C38.1429 36.102 38.2145 36.1777 38.4084 36.2924C37.4319 36.2924 36.5924 36.2924 35.7529 36.2924C36.636 36.0996 36.5807 35.4197 36.5824 34.7796C36.5864 33.3016 36.5739 31.8233 36.5897 30.3454C36.5946 29.8794 36.6679 29.4141 36.7231 28.8027C37.4644 29.326 37.9481 29.9627 38.4905 30.541C39.05 31.1375 39.6443 31.7015 40.247 32.3033Z" fill="#BBBBBB"></path><path d="M176.961 35.5867C176.51 34.9645 176.047 34.3901 175.643 33.777C175.367 33.3587 174.995 33.384 174.606 33.4448C174.527 33.4571 174.426 33.6481 174.422 33.7598C174.403 34.3094 174.401 34.8604 174.417 35.4102C174.428 35.7811 174.522 36.1018 175.011 36.072C175.096 36.0668 175.187 36.1609 175.254 36.2915C174.317 36.2915 173.38 36.2915 172.428 36.2915C172.658 36.0955 172.923 35.9537 173.055 35.7325C173.173 35.5339 173.173 35.2483 173.174 35.0007C173.183 33.3813 173.177 31.7618 173.18 30.1423C173.182 29.5744 172.918 29.2455 172.307 29.2351C172.363 29.1507 172.379 29.1057 172.395 29.1056C173.59 29.0962 174.794 28.9942 175.978 29.1084C177.5 29.2552 178.093 30.8658 177.158 32.1189C176.946 32.4039 176.689 32.6561 176.376 33.01C177.476 34.095 178.046 35.7588 179.862 36.1979C178.943 36.6145 177.62 36.3292 176.961 35.5867ZM174.612 29.5949C174.546 29.7079 174.425 29.8199 174.423 29.9342C174.407 30.7647 174.409 31.5957 174.42 32.4263C174.422 32.5318 174.485 32.6763 174.567 32.7341C175.011 33.0441 175.844 32.8299 176.076 32.3335C176.213 32.0415 176.321 31.7241 176.372 31.4069C176.531 30.42 175.694 29.5215 174.612 29.5949Z" fill="#BBBBBB"></path><path d="M185.306 34.5233C185.999 35.2512 186.633 36.002 187.666 36.231C186.416 36.3831 185.231 36.5226 184.354 35.3097C183.745 34.4674 182.977 33.7399 182.244 32.9206C182.21 33.0387 182.167 33.118 182.167 33.1976C182.161 33.8736 182.152 34.5498 182.167 35.2254C182.177 35.6537 182.201 36.0957 182.81 36.1066C182.877 36.1078 182.943 36.1788 183.124 36.2846C182.069 36.2846 181.134 36.2846 180.091 36.2846C180.268 36.1803 180.36 36.087 180.462 36.0737C180.775 36.033 180.827 35.8247 180.838 35.5707C180.868 34.8514 180.917 34.1324 180.929 33.4128C180.945 32.4384 180.933 31.4636 180.933 30.489C180.932 29.5256 180.932 29.5256 180.101 29.1312C181.001 29.1312 181.901 29.1312 182.8 29.1312C181.945 29.4288 182.185 30.1555 182.164 30.7748C182.15 31.1968 182.162 31.6196 182.162 32.058C182.248 32.0504 182.31 32.0637 182.332 32.0402C183.047 31.2715 183.768 30.508 184.459 29.718C184.557 29.6061 184.505 29.3631 184.528 29.1133C185.209 29.1133 185.99 29.1133 186.772 29.1133C185.974 29.3543 185.372 29.8458 184.817 30.4258C184.275 30.9929 183.706 31.534 183.074 32.1602C183.829 32.9606 184.555 33.7305 185.306 34.5233Z" fill="#BBBBBB"></path><path d="M76.1598 30.9445C76.9073 29.4711 78.195 28.9553 79.6961 28.9002C80.4724 28.8717 81.2554 29.014 82.0347 29.0866C82.4097 29.1215 82.5797 29.3144 82.5308 29.7121C82.475 30.1658 82.4597 30.6246 82.4269 31.0811C82.379 31.0872 82.3311 31.0933 82.2832 31.0994C82.2392 31.0167 82.1648 30.9371 82.1563 30.8509C82.0979 30.2649 81.7475 29.9084 81.2317 29.712C80.25 29.3383 79.2583 29.2676 78.35 29.8856C77.424 30.5157 77.2184 31.5017 77.2395 32.5356C77.2719 34.1251 78.256 35.4904 79.8625 35.8227C80.9546 36.0486 81.7748 35.6838 82.2788 34.6767C82.3039 34.6266 82.3652 34.5944 82.4173 34.5469C82.6464 35.5388 82.4474 36.4459 81.271 36.4688C80.3877 36.4861 79.5162 36.525 78.6611 36.3181C76.4935 35.7936 75.3092 33.6603 75.9644 31.5105C76.0191 31.3308 76.0822 31.1537 76.1598 30.9445Z" fill="#BBBBBB"></path><path d="M138.089 36.3402C137.218 36.3397 136.392 36.3397 135.553 36.3397C135.571 36.2348 135.572 36.1829 135.582 36.1812C136.277 36.0594 136.225 35.5367 136.222 35.0245C136.215 33.4843 136.221 31.944 136.219 30.4037C136.218 29.3177 136.286 29.5281 135.377 29.1084C135.534 29.096 135.69 29.0735 135.847 29.073C136.902 29.0696 137.956 29.07 139.011 29.0712C139.327 29.0716 139.643 29.0786 139.96 29.0826C139.942 29.3916 139.929 29.7011 139.903 30.0094C139.892 30.1513 139.854 30.2911 139.767 30.4775C139.456 29.3476 138.576 29.6751 137.852 29.6581C137.753 29.6558 137.566 29.8526 137.561 29.9637C137.533 30.591 137.53 31.2212 137.563 31.8482C137.569 31.9649 137.775 32.1673 137.888 32.1664C138.505 32.1616 139.121 32.1057 139.826 32.0618C139.786 32.5022 139.74 33.0109 139.691 33.5583C139.571 33.5078 139.513 33.5024 139.493 33.4721C139.346 33.2538 139.242 32.8825 139.058 32.8385C138.628 32.7355 138.159 32.7781 137.707 32.7926C137.651 32.7944 137.557 32.9817 137.555 33.0845C137.541 33.76 137.539 34.4361 137.554 35.1116C137.562 35.4617 137.742 35.7196 138.112 35.7474C138.487 35.7756 138.882 35.8199 139.237 35.7313C139.484 35.6698 139.686 35.4052 139.889 35.2114C139.968 35.1355 139.996 35.005 140.146 34.9176C140.146 35.2629 140.176 35.6114 140.138 35.9526C140.102 36.2769 139.866 36.4405 139.54 36.4275C139.071 36.4088 138.603 36.3705 138.089 36.3402Z" fill="#BBBBBB"></path><path d="M68.2389 32.0867C68.9835 32.3015 69.7093 32.2158 70.4874 31.8909C70.4377 32.4765 70.3937 32.9943 70.3435 33.5847C70.0989 33.2567 69.9697 32.8971 69.7574 32.8387C69.3471 32.7258 68.8892 32.7661 68.4531 32.7866C68.3825 32.7899 68.27 33.0164 68.2662 33.1424C68.246 33.8108 68.2621 34.4802 68.2497 35.149C68.2423 35.5508 68.4772 35.7263 68.8221 35.7596C69.1653 35.7927 69.5327 35.8337 69.8546 35.7451C70.1051 35.6762 70.3168 35.4284 70.5167 35.2308C70.6136 35.1351 70.6438 34.9722 70.724 34.7963C71.1715 35.6202 70.7464 36.4483 69.9455 36.4293C68.6934 36.3996 67.4419 36.3412 66.1891 36.2948C66.1891 36.2525 66.1837 36.1994 66.1899 36.198C67.0462 36.0047 66.8968 35.2818 66.9141 34.7135C66.9565 33.3153 66.9285 31.915 66.9281 30.5155C66.9278 29.5044 66.9272 29.5044 66.0181 29.1076C66.1707 29.0957 66.3233 29.0739 66.4759 29.0735C67.4996 29.0704 68.5232 29.0721 69.5469 29.0714C69.6885 29.0713 69.8316 29.0782 69.9716 29.0616C70.6468 28.9817 70.7031 29.0482 70.5631 29.7502C70.5168 29.9825 70.4918 30.2191 70.4549 30.4684C70.3581 30.4306 70.311 30.4262 70.3044 30.4076C70.053 29.6986 69.977 29.6408 69.1884 29.6409C68.8909 29.6409 68.5935 29.6682 68.256 29.7482C68.2236 30.5711 68.2312 31.3289 68.2389 32.0867Z" fill="#BBBBBB"></path><path d="M156.71 30.7928C156.293 30.1139 155.957 29.4036 155.125 29.1233C155.94 29.1233 156.754 29.1233 157.533 29.1233C157.516 29.3188 157.418 29.5559 157.496 29.7005C157.98 30.6089 158.503 31.4968 159.066 32.4836C159.421 31.862 159.731 31.3271 160.033 30.7879C160.155 30.5693 160.241 30.3283 160.378 30.1202C160.604 29.7768 160.74 29.4581 160.192 29.1152C161.043 29.1152 161.762 29.1152 162.597 29.1152C160.972 29.8422 160.599 31.424 159.783 32.654C159.566 32.9805 159.527 33.4494 159.486 33.8608C159.438 34.343 159.455 34.8352 159.484 35.3205C159.508 35.7088 159.597 36.0823 160.129 36.066C160.231 36.0629 160.335 36.1483 160.412 36.2925C159.442 36.2925 158.472 36.2925 157.498 36.2925C157.504 36.2398 157.502 36.1873 157.51 36.1859C158.225 36.0607 158.176 35.5254 158.151 35.0025C158.149 34.9555 158.145 34.9073 158.152 34.8612C158.347 33.5647 157.883 32.4685 157.126 31.4567C156.977 31.2574 156.862 31.0322 156.71 30.7928Z" fill="#BBBBBB"></path><path d="M97.6823 29.8934C98.1717 30.747 98.6438 31.571 99.1885 32.5218C99.7147 31.5292 100.196 30.6602 100.628 29.7671C100.702 29.6145 100.563 29.3592 100.516 29.1191C101.13 29.1191 101.836 29.1191 102.541 29.1191C102.541 29.1524 102.549 29.2034 102.54 29.2065C101.285 29.6479 101.034 30.9282 100.327 31.8289C99.4215 32.9827 99.6419 34.323 99.6591 35.6267C99.661 35.77 99.8934 35.9446 100.057 36.0414C100.205 36.1292 100.404 36.1306 100.57 36.2818C99.5733 36.2818 98.5769 36.2818 97.5503 36.2818C97.5839 36.2314 97.602 36.173 97.6287 36.1688C98.2707 36.0684 98.2502 35.5875 98.325 35.0914C98.5754 33.4305 97.7276 32.17 96.8837 30.8972C96.064 29.6607 96.0649 29.6601 95.207 29.1248C96.1039 29.1248 96.9169 29.1248 97.7913 29.1248C97.683 29.2465 97.5989 29.3409 97.4939 29.4588C97.5454 29.5807 97.6052 29.7223 97.6823 29.8934Z" fill="#BBBBBB"></path><path d="M52.1788 36.3403C51.5257 36.3403 50.9193 36.3403 50.313 36.3403C50.2867 36.3035 50.2604 36.2667 50.2341 36.2299C51.1519 36.0683 51.0339 35.3815 51.0408 34.7889C51.0586 33.2479 51.0337 31.7064 51.055 30.1656C51.0608 29.748 50.9254 29.5909 50.5138 29.6364C50.078 29.6847 49.6204 29.6448 49.2088 29.7665C48.9146 29.8534 48.6806 30.1432 48.422 30.3407C48.3173 30.115 48.4125 29.1299 48.5886 28.9968C48.6669 28.9376 48.8133 28.9586 48.9288 28.9592C50.7791 28.9686 52.6295 28.9862 54.4799 28.9862C54.7621 28.9862 54.9419 29.0215 54.9226 29.3559C54.9019 29.7141 54.8976 30.0732 54.8862 30.4319C54.8406 30.4338 54.795 30.4356 54.7495 30.4374C54.5786 30.2324 54.4461 29.95 54.2273 29.8419C53.9453 29.7026 53.5964 29.6806 53.2723 29.6476C52.3881 29.5575 52.3706 29.5805 52.3705 30.4572C52.3702 32.0141 52.3699 33.571 52.3706 35.1279C52.3709 35.9041 52.3719 35.9041 53.0906 36.133C53.1623 36.1558 53.2341 36.1788 53.3058 36.2017C53.3045 36.2479 53.3032 36.2941 53.3019 36.3403C52.9431 36.3403 52.5844 36.3403 52.1788 36.3403Z" fill="#BBBBBB"></path><path d="M92.6964 36.0137C92.9505 36.0841 93.171 36.1369 93.3915 36.1896C93.3874 36.2229 93.3832 36.2562 93.379 36.2894C92.3825 36.2894 91.386 36.2894 90.3895 36.2894C91.2256 36.0927 91.1268 35.437 91.1276 34.8373C91.1297 33.2813 91.1159 31.7251 91.1359 30.1694C91.1412 29.7593 91.019 29.5882 90.6003 29.6354C90.1649 29.6845 89.7188 29.6706 89.2932 29.7593C89.0976 29.8001 88.941 30.0222 88.764 30.1585C88.6777 30.225 88.5851 30.2835 88.4953 30.3456C88.4682 30.2485 88.4372 30.1522 88.4166 30.0538C88.4113 30.0286 88.4429 29.9977 88.4504 29.9677C88.5333 29.6369 88.5192 29.2033 88.7283 29.0089C88.8822 28.8659 89.328 29.0643 89.6433 29.0616C91.2771 29.0479 92.9109 29.0265 94.5442 28.9874C94.8578 28.9799 95.0234 29.0355 95.0062 29.3853C94.989 29.7359 95.0024 30.0879 95.0024 30.4301C94.8768 30.4378 94.8232 30.4497 94.8189 30.44C94.3868 29.4572 93.4914 29.6962 92.7112 29.6613C92.631 29.6577 92.4682 29.8586 92.4673 29.9656C92.4525 31.8043 92.4516 33.6433 92.4663 35.4821C92.4677 35.6539 92.5943 35.8247 92.6964 36.0137Z" fill="#BBBBBB"></path><path d="M116.352 36.3369C116.242 36.3224 116.17 36.3086 115.938 36.2646C116.99 35.9804 116.83 35.2329 116.836 34.5769C116.85 33.225 116.83 31.8727 116.845 30.5208C116.853 29.8789 116.886 29.254 115.922 29.2343C115.949 29.1855 115.976 29.1367 116.003 29.0879C117.55 29.0879 119.097 29.0879 120.676 29.0879C120.639 29.5042 120.598 29.9563 120.557 30.4083C120.517 30.414 120.477 30.4197 120.436 30.4254C120.379 30.3289 120.337 30.2161 120.26 30.1391C120.095 29.9735 119.928 29.7265 119.731 29.6921C119.302 29.6175 118.854 29.6376 118.416 29.6625C118.328 29.6675 118.183 29.8632 118.179 29.9752C118.156 30.6032 118.154 31.2331 118.183 31.8606C118.188 31.9714 118.374 32.1661 118.475 32.1653C119.092 32.1602 119.71 32.1099 120.416 32.0696C120.38 32.4738 120.337 32.9706 120.294 33.4674C120.256 33.4716 120.219 33.4759 120.181 33.4801C120.142 33.4229 120.075 33.3687 120.069 33.308C120.027 32.9135 119.76 32.7815 119.419 32.7596C119.122 32.7404 118.821 32.7623 118.522 32.7528C118.257 32.7444 118.162 32.8692 118.164 33.1234C118.171 33.9094 118.162 34.6955 118.169 35.4815C118.171 35.8156 118.289 36.0559 118.685 36.0708C118.826 36.076 118.963 36.1622 119.102 36.2115C119.099 36.2536 119.095 36.2957 119.091 36.3377C118.19 36.3377 117.29 36.3377 116.352 36.3369Z" fill="#BBBBBB"></path><path d="M86.9091 36.3382C86.026 36.3386 85.1827 36.3386 84.3394 36.3386C84.3314 36.3049 84.3235 36.2712 84.3155 36.2375C84.3832 36.192 84.4454 36.1222 84.5197 36.1051C84.9074 36.016 84.9856 35.743 84.9847 35.3968C84.9805 33.6053 84.966 31.8136 84.9935 30.0226C85.0018 29.4811 84.7288 29.2725 84.2769 29.1172C85.1953 29.1172 86.1138 29.1172 87.0323 29.1172C87.0394 29.1436 87.0465 29.17 87.0536 29.1964C86.9029 29.2542 86.6996 29.2704 86.6134 29.3792C86.4716 29.5583 86.3237 29.7961 86.3209 30.0111C86.2976 31.7551 86.3073 33.4995 86.3077 35.2438C86.3078 35.6988 86.3657 36.1029 86.9769 36.0827C87.0667 36.0797 87.1596 36.1704 87.3502 36.269C87.1461 36.304 87.0475 36.321 86.9091 36.3382Z" fill="#BBBBBB"></path><path d="M33.8797 36.0813C34.013 36.1315 34.1121 36.1706 34.2112 36.2096C34.209 36.2343 34.2069 36.2589 34.2048 36.2835C33.2091 36.2835 32.2133 36.2835 31.2144 36.2835C31.2218 36.2426 31.2228 36.1914 31.2326 36.1897C31.931 36.0664 31.964 35.5653 31.9576 34.9967C31.9397 33.4264 31.9518 31.8558 31.9512 30.2853C31.9509 29.4837 31.9501 29.4837 31.2172 29.1328C32.1135 29.1328 33.0099 29.1328 34.0027 29.1328C33.8505 29.2084 33.7727 29.2623 33.6866 29.287C33.3835 29.3742 33.2721 29.5725 33.2731 29.881C33.2795 31.7342 33.2779 33.5873 33.275 35.4405C33.2744 35.83 33.413 36.0791 33.8797 36.0813Z" fill="#BBBBBB"></path><path d="M68.244 32.0419C68.2313 31.3276 68.2237 30.5698 68.2267 29.7754C68.2413 30.4919 68.2452 31.2451 68.244 32.0419Z" fill="#BBBBBB"></path><path d="M193.292 10.4219C193.305 11.8011 193.306 13.217 193.302 14.6767C193.272 13.9714 193.231 13.2224 193.227 12.4731C193.223 11.8017 193.261 11.1301 193.292 10.4219Z" fill="#BBBBBB"></path></g><defs><clipPath id="clip0_1376_5554"><rect width="242" height="37" fill="white"></rect></clipPath></defs></svg>