<svg xmlns="http://www.w3.org/2000/svg" width="71" height="38" viewBox="0 0 71 38" fill="none"><path d="M33.7518 14.1244C33.7518 21.8239 33.7518 29.4868 33.7517 37.1497C33.7517 37.2839 33.7433 37.4186 33.7517 37.5522C33.7655 37.7734 33.6664 37.855 33.4491 37.8523C32.8635 37.845 32.2777 37.8512 31.692 37.8512C29.7641 37.8513 27.8361 37.8445 25.9083 37.8574C25.5772 37.8596 25.4706 37.763 25.4708 37.4248C25.4784 25.3813 25.4784 13.3379 25.4707 1.29445C25.4705 0.955239 25.5781 0.86175 25.9081 0.8633C28.3606 0.874818 30.8133 0.869084 33.2659 0.869765C33.749 0.869899 33.7512 0.871897 33.7513 1.34881C33.7519 5.59512 33.7517 9.84143 33.7518 14.1244Z" fill="#BBBBBB"></path><path d="M9.14563 8.77879C9.14563 18.2369 9.14563 27.6584 9.1456 37.0799C9.1456 37.2142 9.13292 37.3497 9.14747 37.4824C9.17982 37.7772 9.04484 37.8563 8.76643 37.8555C6.26463 37.8479 3.76276 37.8447 1.26101 37.8585C0.912678 37.8605 0.866202 37.7141 0.86671 37.4223C0.87322 33.6757 0.870843 29.9291 0.870827 26.1824C0.870792 17.9813 0.870798 9.78024 0.870999 1.57914C0.871003 1.43271 0.839056 1.27385 0.885819 1.14372C0.924527 1.03601 1.04527 0.939486 1.15303 0.881103C1.22899 0.839941 1.34407 0.869907 1.44168 0.869899C3.83367 0.869707 6.22566 0.869475 8.61765 0.869975C9.14363 0.870086 9.14516 0.871354 9.14529 1.38316C9.14589 3.83616 9.1456 6.28917 9.14563 8.77879Z" fill="#BBBBBB"></path><path d="M13.1738 19.2518C13.1739 13.2854 13.1738 7.35551 13.174 1.42566C13.1741 0.871656 13.175 0.870815 13.7312 0.870745C16.147 0.870442 18.5629 0.877495 20.9787 0.863317C21.3391 0.861203 21.4571 0.951193 21.4567 1.32976C21.4464 10.615 21.4466 19.9002 21.4561 29.1854C21.4565 29.5552 21.3523 29.6606 20.983 29.6583C18.5429 29.6431 16.1025 29.6509 13.6623 29.6502C13.1768 29.65 13.1745 29.648 13.1744 29.1715C13.1736 25.8772 13.1739 22.5828 13.1738 19.2518Z" fill="#BBBBBB"></path><path d="M50.0835 13.5566C50.049 13.245 50.182 13.1686 50.4452 13.1693C52.9585 13.1763 55.4719 13.1802 57.9852 13.166C58.3556 13.164 58.3603 13.3532 58.36 13.6214C58.3565 17.5134 58.3578 21.4055 58.3578 25.2975C58.3578 29.2993 58.3579 33.3012 58.3576 37.303C58.3576 37.8497 58.3565 37.851 57.8288 37.8511C55.413 37.8515 52.9973 37.8516 50.5816 37.8509C50.0851 37.8508 50.0833 37.849 50.0833 37.3459C50.083 29.4277 50.0832 21.5094 50.0835 13.5566Z" fill="#BBBBBB"></path><path d="M37.78 32.799C37.78 26.4185 37.7799 20.0746 37.7802 13.7306C37.7802 13.1744 37.7812 13.1735 38.3369 13.1734C40.7525 13.1731 43.1681 13.1801 45.5836 13.1661C45.9438 13.164 46.0632 13.2543 46.0627 13.633C46.0521 21.5507 46.0523 29.4684 46.0622 37.3861C46.0626 37.7551 45.9597 37.8619 45.5896 37.8596C43.1375 37.8442 40.6853 37.8456 38.2332 37.8585C37.8886 37.8603 37.7683 37.7707 37.7726 37.4105C37.7906 35.8858 37.7801 34.3606 37.78 32.799Z" fill="#BBBBBB"></path><path d="M55.8678 0.86887C60.6375 0.868884 65.3706 0.868772 70.1037 0.86908C70.6594 0.869116 70.6603 0.870188 70.6604 1.43256C70.6608 3.8479 70.6531 6.26329 70.6684 8.67853C70.6707 9.04774 70.5655 9.15209 70.1957 9.15149C63.645 9.14097 57.0943 9.14079 50.5436 9.15183C50.1671 9.15247 50.0731 9.03683 50.0752 8.67436C50.0896 6.22251 50.089 3.7705 50.0756 1.31863C50.0737 0.971156 50.1671 0.858005 50.5248 0.861402C52.2935 0.878195 54.0624 0.86894 55.8678 0.86887Z" fill="#BBBBBB"></path><path d="M37.7801 5.55598C37.7802 4.10466 37.7894 2.68986 37.7737 1.27533C37.77 0.949714 37.876 0.861896 38.1922 0.863298C40.68 0.874327 43.168 0.873252 45.6559 0.864502C45.95 0.863468 46.0613 0.945428 46.06 1.25522C46.05 3.7553 46.0501 6.25545 46.06 8.75553C46.0612 9.06166 45.9574 9.15014 45.6595 9.14904C43.1716 9.13987 40.6836 9.1393 38.1957 9.14975C37.8829 9.15106 37.7679 9.06773 37.7736 8.73897C37.792 7.69046 37.7802 6.64142 37.7801 5.55598Z" fill="#BBBBBB"></path></svg>