<svg xmlns="http://www.w3.org/2000/svg" width="236" height="37" viewBox="0 0 236 37" fill="none"><g clip-path="url(#clip0_1376_5668)"><path d="M15.26 0.0917969C15.3715 0.152869 15.4356 0.261496 15.5089 0.268073C17.4514 0.442386 19.2927 0.988104 21.0028 1.90079C21.9658 2.41477 22.8425 3.09045 23.755 3.69785C23.9834 3.84984 23.9967 4.03694 23.8625 4.28181C23.1825 5.52214 22.5175 6.77063 21.8453 8.01523C21.6167 8.43851 21.3825 8.8588 21.1536 9.27558C20.4837 8.82701 19.8311 8.34531 19.1365 7.93456C17.8215 7.157 16.4222 6.60487 14.9008 6.33578C13.5914 6.10421 12.3116 6.09158 11.058 6.5364C9.51304 7.0846 8.34615 8.0147 7.99264 9.7264C7.76326 10.837 8.07074 11.7866 8.80855 12.6094C9.64407 13.5411 10.7414 14.1003 11.852 14.6109C13.2705 15.2632 14.7166 15.8558 16.152 16.4712C18.0669 17.2922 19.9085 18.223 21.5209 19.581C23.0975 20.909 24.1343 22.5588 24.4918 24.5567C25.033 27.5813 24.4659 30.4004 22.531 32.8628C20.9357 34.8931 18.8063 36.0697 16.3146 36.6245C15.6844 36.7648 15.034 36.8137 14.394 36.912C14.3124 36.9245 14.2378 36.9819 14.1784 37.0551C13.3346 37.0918 12.4722 37.0918 11.5834 37.0543C11.4482 36.9804 11.342 36.9279 11.2304 36.9104C10.3092 36.766 9.37491 36.6816 8.46782 36.4766C6.758 36.0901 5.121 35.4725 3.64903 34.5146C2.64125 33.8588 1.71108 33.084 0.747927 32.3601C0.519541 32.1884 0.52871 32.0465 0.717506 31.8003C1.33884 30.9902 1.91052 30.1423 2.50777 29.3136C3.02648 28.5939 3.55401 27.8805 4.07571 27.1669C4.46892 27.4822 4.83346 27.8012 5.22446 28.0836C7.64661 29.8335 10.2639 31.0518 13.3405 30.9195C15.0966 30.844 16.61 30.267 17.593 28.6881C18.1706 27.7604 18.2774 25.9787 17.6135 24.9789C16.9359 23.9586 15.9916 23.2652 14.9344 22.7478C12.2891 21.453 9.59971 20.248 6.95216 18.9575C5.50947 18.2543 4.25035 17.2606 3.21838 16.0358C1.46004 13.9488 0.990555 11.4765 1.40638 8.85331C1.7937 6.40988 3.04344 4.39133 4.96514 2.84419C6.783 1.38066 8.89608 0.549673 11.221 0.268505C11.2971 0.259299 11.3615 0.152893 11.4313 0.0917971C12.6931 0.091797 13.9549 0.091797 15.26 0.0917969Z" fill="#BBBBBB"></path><path d="M184.388 0.828783C184.524 0.797709 184.66 0.739606 184.796 0.739472C189.558 0.734781 194.322 0.674747 199.082 0.761292C201.447 0.804285 203.621 1.60768 205.509 3.09865C207.151 4.39479 208.286 6.05114 208.92 8.01364C209.249 9.0324 209.403 10.1204 209.523 11.1898C209.618 12.0416 209.598 12.9169 209.53 13.7739C209.388 15.5625 208.888 17.2552 207.98 18.8164C207.197 20.1621 206.152 21.2739 204.887 22.1681C203.71 23.0007 202.394 23.5581 200.977 23.8266C200.179 23.9778 199.362 24.0895 198.551 24.1009C196.064 24.1358 193.575 24.1136 191.036 24.1136C191.036 28.1834 191.036 32.2375 191.036 36.3522C188.841 36.3522 186.697 36.3522 184.511 36.3037C184.467 24.703 184.468 13.1508 184.464 1.59849C184.464 1.34191 184.414 1.08535 184.388 0.828783ZM198.319 18.3136C198.42 18.2838 198.519 18.2465 198.621 18.2251C200.186 17.8985 201.396 17.0714 202.161 15.66C203.073 13.976 203.119 12.1704 202.681 10.3694C202.421 9.2983 201.864 8.34564 200.951 7.62543C199.749 6.67735 198.366 6.37058 196.889 6.35408C195.261 6.33589 193.633 6.34993 192.004 6.34993C191.686 6.34993 191.368 6.34993 191.043 6.34993C191.043 10.3933 191.043 14.3858 191.043 18.3148C193.462 18.3148 195.85 18.3148 198.319 18.3136Z" fill="#BBBBBB"></path><path d="M210.188 23.8636C210.33 22.6235 210.553 21.4471 211.012 20.3241C211.516 19.0903 212.171 17.9492 213.07 16.9594C214.119 15.8056 215.309 14.8229 216.72 14.1438C218.038 13.509 219.413 13.0284 220.884 12.8867C221.624 12.8155 222.367 12.6916 223.105 12.716C224.984 12.7784 226.809 13.1196 228.547 13.8925C230.256 14.6525 231.722 15.7389 232.916 17.149C234.266 18.7436 235.177 20.5853 235.437 22.6823C235.567 23.7348 235.684 24.8113 235.608 25.8624C235.432 28.2696 234.598 30.4467 233.063 32.3509C231.133 34.7445 228.596 36.1106 225.639 36.7001C223.966 37.0336 222.26 37.0106 220.556 36.7386C218.618 36.4293 216.842 35.7586 215.237 34.6386C212.698 32.8663 211.098 30.4797 210.444 27.4398C210.191 26.264 210.192 25.0902 210.188 23.8636ZM224.989 18.0303C223.968 17.6981 222.924 17.5757 221.864 17.7703C219.667 18.174 217.987 19.3497 216.947 21.317C216.065 22.9836 215.863 24.7857 216.291 26.6322C216.695 28.3784 217.63 29.8037 219.106 30.8154C220.675 31.8913 222.452 32.1905 224.305 31.8337C225.974 31.5125 227.311 30.6092 228.326 29.245C229.098 28.2075 229.481 27.0351 229.656 25.7547C229.853 24.3125 229.628 22.943 229.037 21.657C228.236 19.9124 226.899 18.6865 224.989 18.0303Z" fill="#BBBBBB"></path><path d="M145.442 30.6772C146.621 31.5194 147.915 31.8806 149.321 31.9454C151.017 32.0236 152.588 31.587 154.077 30.8406C154.839 30.4584 155.545 29.9651 156.329 29.4905C156.419 29.6233 156.565 29.8073 156.676 30.0109C157.287 31.1345 157.897 32.2584 158.478 33.3972C158.532 33.5037 158.43 33.7799 158.316 33.8679C157.228 34.707 156.042 35.3762 154.766 35.8979C152.573 36.7943 150.281 37.0757 147.951 36.8902C145.33 36.6815 142.949 35.8029 140.904 34.0696C139.226 32.6474 138.123 30.8743 137.422 28.8274C136.875 27.2319 136.706 25.573 136.817 23.9025C136.987 21.3445 137.752 18.9757 139.354 16.9334C140.584 15.3642 142.157 14.2371 144.025 13.5351C145.202 13.0932 146.418 12.8764 147.678 12.7735C149.817 12.599 151.833 12.9497 153.727 13.9272C155.223 14.6989 156.369 15.8611 157.227 17.3057C158.134 18.8329 158.649 20.4888 158.736 22.2558C158.796 23.4658 158.748 24.6812 158.748 25.9421C153.429 25.9421 148.139 25.9421 142.771 25.9421C143.055 27.9014 143.76 29.5395 145.442 30.6772ZM146.654 17.4948C144.572 18.2361 143.449 19.7676 142.997 21.878C146.324 21.878 149.618 21.878 152.911 21.878C152.901 18.4393 150.051 16.5457 146.654 17.4948Z" fill="#BBBBBB"></path><path d="M83.9818 25.6469C83.9476 26.0594 83.6598 25.9519 83.4533 25.9522C79.4756 25.9571 75.4978 25.9559 71.5201 25.9559C70.3716 25.9559 69.2232 25.9559 67.9464 25.9559C68.1226 26.6418 68.2138 27.2852 68.4511 27.8695C69.388 30.1759 71.1582 31.4534 73.5897 31.8453C75.5036 32.1538 77.3243 31.8194 79.0374 30.9381C79.8888 30.5 80.7049 29.9932 81.576 29.4952C81.7114 29.7212 81.8896 29.9947 82.0439 30.281C82.5934 31.3005 83.1282 32.3279 83.6841 33.3439C83.8143 33.582 83.7581 33.7178 83.5602 33.8683C81.9486 35.0933 80.1738 35.9957 78.2028 36.4626C77.2835 36.6803 76.3367 36.8353 75.3946 36.8922C73.9221 36.981 72.449 36.9229 71.0035 36.545C69.2475 36.0859 67.6582 35.3231 66.246 34.1678C64.0582 32.378 62.756 30.0509 62.2555 27.3285C61.7409 24.5293 61.9885 21.7661 63.2372 19.1443C64.6736 16.1283 66.9841 14.1589 70.1988 13.2304C71.4886 12.8578 72.8027 12.6569 74.137 12.7122C76.4253 12.807 78.5791 13.3728 80.3778 14.8712C81.6202 15.9061 82.5394 17.2036 83.1454 18.7047C83.6258 19.895 83.951 21.1296 83.9786 22.4208C84.0013 23.4815 83.9827 24.5431 83.9818 25.6469ZM68.5709 21.9061C71.7582 21.9061 74.9455 21.9061 78.1948 21.9061C78.1529 21.5934 78.1211 21.3306 78.082 21.0688C77.9432 20.1402 77.5843 19.3037 76.9451 18.615C75.7825 17.3624 74.2854 17.0447 72.6824 17.3231C70.1693 17.7594 68.8784 19.3039 68.2442 21.6625C68.1765 21.9145 68.3221 21.9076 68.5709 21.9061Z" fill="#BBBBBB"></path><path d="M103.818 22.6425C103.752 21.9508 103.754 21.2442 103.606 20.5704C103.291 19.1339 102.446 18.3099 100.935 18.1243C99.1407 17.9037 97.5611 18.3636 96.1856 19.5232C94.6891 20.7849 93.8487 22.4282 93.7774 24.3505C93.6615 27.4694 93.6912 30.5938 93.6634 33.7158C93.6557 34.5731 93.6622 35.4305 93.6622 36.3214C91.7293 36.3214 89.8199 36.3214 87.8823 36.3214C87.8823 28.6467 87.8823 20.9736 87.8823 13.2768C89.735 13.2768 91.5724 13.2768 93.4319 13.2768C93.4319 14.6144 93.4319 15.9559 93.4319 17.2223C93.9315 16.6029 94.4071 15.8763 95.0158 15.2866C96.364 13.9804 97.9815 13.1783 99.8593 12.8722C101.568 12.5937 103.237 12.6902 104.88 13.1951C107.004 13.8478 108.344 15.3099 109.046 17.377C109.431 18.5114 109.615 19.6844 109.613 20.8878C109.607 25.8412 109.611 30.7947 109.611 35.7481C109.611 35.9299 109.611 36.1117 109.611 36.3523C107.715 36.3523 105.847 36.3523 103.937 36.3039C103.895 31.9282 103.896 27.601 103.892 23.2738C103.892 23.0634 103.844 22.853 103.818 22.6425Z" fill="#BBBBBB"></path><path d="M170.274 31.9373C171.053 31.9654 171.776 31.9217 172.435 31.5513C173.776 30.797 173.861 29.4049 172.644 28.5146C171.617 27.7637 170.435 27.3666 169.292 26.8762C167.645 26.1699 165.966 25.5075 164.578 24.346C163.257 23.2412 162.417 21.8572 162.328 20.0645C162.275 18.9792 162.383 17.9527 162.83 16.9558C163.409 15.6648 164.349 14.7183 165.568 14.0416C166.972 13.2612 168.489 12.9039 170.095 12.7752C172.251 12.6025 174.323 12.8825 176.293 13.7317C177.169 14.1088 177.962 14.6798 178.777 15.1876C178.858 15.2382 178.896 15.4932 178.844 15.6004C178.188 16.957 177.512 18.3038 176.822 19.6921C176.335 19.3836 175.901 19.0308 175.407 18.8143C174.576 18.4494 173.713 18.1484 172.849 17.8669C172.482 17.7475 172.078 17.7271 171.689 17.6936C170.716 17.6098 169.754 17.73 168.963 18.3135C167.967 19.0474 167.872 20.3681 169.08 21.0559C170.276 21.7367 171.559 22.2685 172.824 22.8202C174.611 23.5994 176.418 24.3431 177.795 25.7902C178.794 26.8397 179.349 28.0737 179.414 29.5584C179.483 31.109 179.125 32.4955 178.206 33.739C177.363 34.8803 176.226 35.6252 174.934 36.1742C173.089 36.9582 171.139 37.0446 169.204 36.8811C166.703 36.6699 164.398 35.8105 162.397 34.245C161.526 33.5637 161.534 33.5601 162.142 32.6248C162.764 31.668 163.378 30.7053 163.998 29.7471C164.069 29.6372 164.158 29.5391 164.246 29.4273C165.989 30.9261 167.926 31.8715 170.274 31.9373Z" fill="#BBBBBB"></path><path d="M132.354 19.5739C132.212 19.7876 132.09 19.9736 131.971 20.1537C131.291 19.6983 130.651 19.2226 129.967 18.8239C128.919 18.2128 127.789 17.8702 126.563 17.741C125.238 17.6014 123.988 17.8142 122.825 18.3629C120.753 19.34 119.558 21.0248 119.091 23.2687C118.727 25.016 118.952 26.6737 119.759 28.2304C120.784 30.2073 122.426 31.4402 124.632 31.8354C126.327 32.1392 128.002 31.9675 129.543 31.1798C130.698 30.589 131.783 29.8593 132.962 29.1536C133.655 30.4189 134.401 31.781 135.161 33.1687C134.033 34.3206 132.722 35.2133 131.229 35.7838C130.129 36.2042 128.983 36.5955 127.825 36.7504C126.539 36.9224 125.214 36.8387 123.908 36.8151C122.769 36.7945 121.682 36.4825 120.615 36.0929C119.343 35.6288 118.211 34.9467 117.157 34.0998C115.906 33.094 114.969 31.8479 114.258 30.4353C113.627 29.1813 113.256 27.8415 113.105 26.4343C112.878 24.3238 113.046 22.2717 113.839 20.2884C114.34 19.0349 115.01 17.8934 115.892 16.8549C116.964 15.5938 118.272 14.6741 119.736 13.9645C120.932 13.3855 122.199 13.0059 123.531 12.8855C124.302 12.8159 125.076 12.6906 125.845 12.7138C128.583 12.7962 131.139 13.494 133.377 15.1367C133.78 15.4323 134.132 15.7965 134.54 16.1577C133.808 17.3031 133.091 18.4246 132.354 19.5739Z" fill="#BBBBBB"></path><path d="M29.2885 32.0579C28.1282 30.453 27.4855 28.6913 27.1806 26.7707C26.8703 24.8161 27.0398 22.9076 27.5983 21.0403C28.0222 19.6228 28.7336 18.3321 29.6729 17.1667C31.4978 14.9026 33.8935 13.5862 36.6918 13.0023C37.7818 12.7748 38.9266 12.6891 40.0411 12.7214C42.8286 12.8024 45.4053 13.5958 47.6436 15.3174C47.9211 15.5307 48.1598 15.8001 48.388 16.0678C48.4502 16.1408 48.4595 16.3347 48.4064 16.4182C47.6334 17.6342 46.8462 18.8412 46.0595 20.0485C46.0291 20.0951 45.9695 20.1229 45.9983 20.1C45.1301 19.5567 44.3291 18.993 43.4712 18.536C42.6053 18.0749 41.6527 17.8657 40.6665 17.748C38.9344 17.5413 37.3473 17.926 35.9379 18.887C34.3293 19.9838 33.3921 21.5497 33.0906 23.4884C32.8419 25.0875 33.0017 26.6379 33.7185 28.086C34.7637 30.1974 36.4725 31.465 38.8165 31.8454C41.5395 32.2873 43.8665 31.3533 46.0024 29.77C46.2335 29.5987 46.4482 29.4034 46.6574 29.2055C46.835 29.0376 46.9412 29.0351 47.0687 29.2703C47.7201 30.4722 48.394 31.6621 49.0345 32.8697C49.1043 33.0013 49.0793 33.307 48.9817 33.3835C48.2248 33.9768 47.4684 34.5797 46.6562 35.0917C45.1883 36.0172 43.5465 36.5669 41.8451 36.7783C40.5256 36.9422 39.1676 36.8634 37.8306 36.8053C36.1022 36.7301 34.5042 36.1446 32.9919 35.3353C31.6794 34.633 30.576 33.6713 29.6493 32.5079C29.5365 32.3663 29.4221 32.226 29.2885 32.0579Z" fill="#BBBBBB"></path><path d="M52.4719 36.3491C52.4661 36.2268 52.4553 36.1046 52.4553 35.9824C52.4545 28.5626 52.4546 21.1428 52.4546 13.7231C52.4546 13.5873 52.4546 13.4516 52.4546 13.2852C54.4237 13.2852 56.3636 13.2852 58.3358 13.2852C58.3422 13.3907 58.3537 13.4933 58.3537 13.5959C58.3546 21.0769 58.3546 28.558 58.3538 36.0391C58.3538 36.1306 58.3426 36.2221 58.2605 36.3362C56.2802 36.3555 54.3761 36.3523 52.4719 36.3491Z" fill="#BBBBBB"></path><path d="M52.4546 5.43076C52.4546 5.01985 52.4546 4.65476 52.4546 4.26172C54.3963 4.26172 56.3045 4.26172 58.2376 4.26172C58.2376 5.95416 58.2376 7.63394 58.2376 9.35059C56.337 9.35059 54.4287 9.35059 52.4546 9.35059C52.4546 8.0675 52.4546 6.77204 52.4546 5.43076Z" fill="#BBBBBB"></path><path d="M184.383 0.873047C184.415 1.08689 184.464 1.34345 184.464 1.60003C184.468 13.1523 184.468 24.7046 184.468 36.299C184.437 36.2042 184.379 36.0674 184.379 35.9305C184.375 24.2589 184.377 12.5873 184.383 0.873047Z" fill="#BBBBBB"></path><path d="M103.812 22.6855C103.844 22.8533 103.892 23.0638 103.892 23.2742C103.896 27.6014 103.895 31.9286 103.895 36.2979C103.864 36.2189 103.807 36.0977 103.807 35.9765C103.803 31.5604 103.805 27.1443 103.812 22.6855Z" fill="#BBBBBB"></path><path d="M52.4849 36.3873C54.376 36.3526 56.2802 36.3558 58.2281 36.3598C58.2081 36.3895 58.1443 36.4441 58.0806 36.444C56.2197 36.441 54.3588 36.4327 52.4849 36.3873Z" fill="#BBBBBB"></path></g><defs><clipPath id="clip0_1376_5668"><rect width="236" height="37" fill="white"></rect></clipPath></defs></svg>