<svg xmlns="http://www.w3.org/2000/svg" width="222" height="37" viewBox="0 0 222 37" fill="none"><g clip-path="url(#clip0_1376_5457)"><path d="M95.0899 0.0859375C94.6999 2.19374 94.2625 4.30021 93.8398 6.40959C91.9214 15.9813 90.0071 25.5538 88.0913 35.126C87.9254 35.9548 87.9213 35.9591 87.0798 35.9592C83.9148 35.9598 80.7498 35.9603 77.5849 35.9587C76.8523 35.9583 76.8038 35.8967 76.9444 35.1842C77.7609 31.0474 78.579 26.911 79.393 22.7737C79.5159 22.1492 79.4703 22.0975 78.8338 22.0967C76.6516 22.0942 74.4693 22.0942 72.2871 22.0968C71.6443 22.0976 71.5932 22.142 71.4659 22.7863C70.6484 26.9229 69.8332 31.0599 69.0159 35.1966C68.87 35.9353 68.841 35.9587 68.0771 35.9589C64.8543 35.96 61.6315 35.9601 58.4088 35.9588C57.7117 35.9585 57.685 35.9244 57.8214 35.2405C59.4844 26.8991 61.1481 18.5578 62.8114 10.2164C62.8396 10.0748 62.8653 9.93269 62.8916 9.79071C62.9425 9.51513 62.8199 9.37865 62.5471 9.36666C62.4173 9.36095 62.2871 9.35805 62.1571 9.35803C59.6281 9.35754 57.099 9.35701 54.5699 9.35807C53.8211 9.35839 53.8068 9.37035 53.6621 10.0952C51.9948 18.4505 50.3282 26.8059 48.6611 35.1613C48.5029 35.9541 48.4977 35.959 47.6676 35.9592C44.5749 35.9599 41.4822 35.9596 38.3895 35.9595C37.3837 35.9595 37.3831 35.9592 37.5776 34.9878C39.2273 26.7467 40.8773 18.5057 42.5273 10.2647C42.5329 10.2363 42.5391 10.2081 42.5447 10.1798C42.6983 9.40616 42.6617 9.35823 41.8748 9.35815C33.9841 9.35739 26.0934 9.35741 18.2027 9.35815C17.4449 9.35822 17.4171 9.38333 17.2679 10.1262C17.066 11.1315 16.8648 12.1368 16.6641 13.1423C16.5031 13.9485 16.5036 13.9498 17.3096 13.9499C22.0064 13.9503 26.7033 13.95 31.4002 13.9502C32.4577 13.9502 32.4585 13.9506 32.2559 14.9641C31.8369 17.0598 31.4175 19.1555 30.9972 21.251C30.8285 22.092 30.8248 22.095 29.9469 22.0951C25.1922 22.0956 20.4376 22.0951 15.6829 22.0957C14.8405 22.0958 14.8345 22.0997 14.6712 22.9281C14.4729 23.934 14.2763 24.9402 14.0847 25.9474C13.9719 26.5408 14.0194 26.5993 14.6309 26.5995C19.4 26.6016 24.1692 26.6009 28.9383 26.6012C29.9265 26.6012 29.9269 26.6017 29.7295 27.5878C29.2165 30.1507 28.7037 32.7137 28.1895 35.2764C28.0593 35.9257 28.0228 35.9584 27.367 35.9585C18.7971 35.9596 10.2271 35.9596 1.65713 35.9584C0.99639 35.9583 0.956528 35.9061 1.08697 35.2543C3.31128 24.1385 5.53695 13.0231 7.75899 1.90686C7.87486 1.3272 7.96102 0.741607 8.06295 0.122357C30.6714 0.0859375 53.2779 0.0859375 75.9232 0.122344C75.9187 0.42917 75.8848 0.701513 75.8305 0.969723C74.9975 5.08525 74.161 9.20008 73.3277 13.3155C73.2121 13.8865 73.2615 13.9477 73.8434 13.9484C76.0529 13.9513 78.2624 13.9511 80.4718 13.9487C81.081 13.948 81.1309 13.9042 81.2509 13.3207C81.5153 12.0345 81.7792 10.7483 82.0407 9.46152C82.6759 6.33649 83.3095 3.21115 83.9438 0.0859375C87.6456 0.0859375 91.3474 0.0859375 95.0899 0.0859375Z" fill="#BBBBBB"></path><path d="M210.166 0.0859375C209.353 4.33294 208.5 8.5799 207.648 12.8271C207.609 13.0208 207.581 13.2166 207.533 13.499C207.69 13.4087 207.778 13.3756 207.843 13.3171C209.603 11.7509 211.645 11.0079 214.014 10.9817C215.791 10.962 217.408 11.2956 218.798 12.4253C220.3 13.6464 221.111 15.2425 221.216 17.1795C221.291 18.5745 221.075 19.9429 220.798 21.3047C219.86 25.9177 218.927 30.5315 217.993 35.145C217.83 35.9478 217.819 35.958 217.009 35.9592C216.301 35.9603 215.593 35.9619 214.884 35.9583C214.246 35.9551 214.2 35.899 214.323 35.283C214.928 32.2527 215.541 29.224 216.139 26.1924C216.553 24.0961 216.956 21.9975 217.345 19.8966C217.432 19.4302 217.471 18.9506 217.484 18.4758C217.555 15.9168 215.769 14.1304 213.206 14.2175C211.573 14.2731 210.086 14.7717 208.805 15.8169C207.413 16.9526 206.598 18.4548 206.217 20.1663C205.621 22.8434 205.112 25.5398 204.574 28.2298C204.093 30.6369 203.621 33.0457 203.151 35.4551C203.08 35.8189 202.875 35.9626 202.516 35.9593C201.722 35.952 200.927 35.9619 200.132 35.9578C199.492 35.9545 199.414 35.8637 199.538 35.2423C200.042 32.7073 200.551 30.1732 201.058 27.6386C202.89 18.4774 204.722 9.31618 206.559 0.120444C207.751 0.0859367 208.938 0.0859367 210.166 0.0859375Z" fill="#BBBBBB"></path><path d="M142.525 0.0859375C142.303 1.4145 142.041 2.74334 141.776 4.07151C141.645 4.72702 141.602 4.76195 140.916 4.76416C140.109 4.76677 139.301 4.76913 138.494 4.76237C137.947 4.75779 137.877 4.67463 137.982 4.14788C138.191 3.10234 138.414 2.05953 138.623 1.01404C138.679 0.732317 138.707 0.445001 138.749 0.123096C139.995 0.085937 141.239 0.085937 142.525 0.0859375Z" fill="#BBBBBB"></path><path d="M133.073 0.0859375C132.841 1.43028 132.571 2.77495 132.297 4.11884C132.177 4.70347 132.112 4.75978 131.523 4.76311C130.685 4.76786 129.847 4.76974 129.009 4.76145C128.498 4.7564 128.431 4.66731 128.528 4.15612C128.781 2.82319 129.038 1.49115 129.296 0.122344C130.542 0.0859381 131.787 0.0859381 133.073 0.0859375Z" fill="#BBBBBB"></path><path d="M177.039 0.0859375C176.808 1.39999 176.536 2.71396 176.265 4.02813C176.119 4.73721 176.089 4.76317 175.349 4.76454C174.554 4.76601 173.76 4.77044 172.965 4.76093C172.461 4.75491 172.383 4.65378 172.479 4.15103C172.735 2.81892 172.998 1.48822 173.261 0.12145C174.509 0.0859377 175.754 0.0859377 177.039 0.0859375Z" fill="#BBBBBB"></path><path d="M134.26 34.0757C132.565 35.4864 130.654 36.1829 128.467 36.2345C126.761 36.2747 125.191 35.9678 123.813 34.9232C122.396 33.8491 121.576 32.4208 121.328 30.6638C121.152 29.417 121.314 28.1863 121.554 26.9671C122.517 22.0799 123.493 17.1954 124.466 12.3102C124.597 11.6541 124.648 11.6143 125.327 11.6115C126.035 11.6087 126.743 11.6086 127.451 11.6116C128.136 11.6145 128.183 11.6716 128.051 12.3366C127.122 17.0097 126.178 21.68 125.274 26.3578C125.094 27.2877 124.983 28.246 124.979 29.1917C124.971 31.3323 126.687 32.9785 128.823 33.0181C130.634 33.0518 132.242 32.5303 133.629 31.3663C134.819 30.3663 135.577 29.0607 135.947 27.5831C136.43 25.6524 136.787 23.69 137.18 21.7374C137.804 18.6377 138.412 15.5347 139.028 12.4333C139.19 11.614 139.195 11.6117 140.047 11.6108C140.755 11.6101 141.464 11.6073 142.171 11.6124C142.774 11.6168 142.834 11.6894 142.718 12.2729C142.31 14.3263 141.893 16.378 141.487 18.4318C140.382 24.0266 139.28 29.6221 138.178 35.2175C138.039 35.9248 138.003 35.9575 137.268 35.959C136.546 35.9605 135.823 35.9642 135.101 35.9564C134.562 35.9506 134.491 35.8565 134.583 35.3336C134.669 34.8436 134.754 34.3534 134.839 33.8633C134.796 33.8352 134.753 33.807 134.71 33.7788C134.567 33.8709 134.425 33.9629 134.26 34.0757Z" fill="#BBBBBB"></path><path d="M116.724 11.6116C117.287 11.6129 117.807 11.6175 118.328 11.6141C118.656 11.612 118.767 11.7642 118.702 12.0796C118.549 12.8148 118.417 13.5546 118.248 14.2859C118.201 14.4867 118.082 14.6902 117.945 14.8475C116.474 16.5331 114.992 18.2094 113.514 19.8889C112.103 21.4925 110.695 23.0989 109.281 24.7C107.877 26.2903 106.467 27.8757 105.059 29.4628C104.33 30.2833 103.6 31.1014 102.874 31.9242C102.782 32.0289 102.714 32.155 102.581 32.3493C102.849 32.3734 103.039 32.4054 103.23 32.4055C106.843 32.4086 110.456 32.4078 114.069 32.408C114.228 32.408 114.388 32.4164 114.546 32.4089C114.937 32.3905 115.062 32.572 114.988 32.9449C114.818 33.7945 114.656 34.6457 114.5 35.4979C114.439 35.8273 114.246 35.9609 113.925 35.9578C113.506 35.9539 113.087 35.9604 112.667 35.9604C107.884 35.9607 103.1 35.9606 98.3159 35.9602C98.1425 35.9602 97.9691 35.9578 97.7958 35.9518C97.5465 35.9432 97.4121 35.8243 97.4643 35.5644C97.6292 34.7435 97.7181 33.8944 97.9987 33.1144C98.1739 32.6275 98.6229 32.2292 98.9814 31.8195C100.844 29.6904 102.716 27.5692 104.587 25.4477C106.392 23.402 108.201 21.3604 110.007 19.3151C111.086 18.0922 112.162 16.8665 113.236 15.639C113.327 15.5349 113.392 15.4077 113.519 15.2162C113.246 15.1947 113.054 15.1665 112.862 15.1663C109.48 15.1636 106.098 15.1644 102.716 15.164C102.557 15.1639 102.398 15.1622 102.239 15.1566C101.953 15.1464 101.805 15.0113 101.862 14.7131C102.035 13.8054 102.196 12.8944 102.405 11.9951C102.441 11.8434 102.679 11.703 102.854 11.6309C103.003 11.5695 103.196 11.6119 103.369 11.6119C107.806 11.6115 112.243 11.6116 116.724 11.6116Z" fill="#BBBBBB"></path><path d="M178.532 23.4638C179.122 20.6542 180.07 18.031 181.864 15.7933C184.059 13.0562 186.912 11.6002 190.448 11.5212C191.79 11.4913 193.106 11.5663 194.355 12.1216C195.69 12.7155 196.803 13.5799 197.664 14.7686C197.885 15.074 197.878 15.2942 197.579 15.5413C196.911 16.0925 196.253 16.6569 195.607 17.2335C195.304 17.5035 195.167 17.3327 195.006 17.0843C194.135 15.7397 192.888 14.9373 191.309 14.7794C189.004 14.5489 186.975 15.2544 185.385 16.9531C183.597 18.862 182.591 21.1842 182.15 23.7415C181.935 24.9904 181.761 26.2561 181.705 27.5203C181.647 28.8446 181.893 30.1381 182.658 31.2791C183.556 32.6209 184.861 33.2526 186.425 33.3489C188.794 33.4949 190.78 32.6356 192.39 30.9083C192.64 30.6401 192.815 30.611 193.046 30.8983C193.553 31.5286 194.063 32.1556 194.579 32.7788C194.824 33.0761 194.703 33.3055 194.471 33.5301C193.623 34.3523 192.661 35.0133 191.591 35.5094C188.972 36.7242 186.263 37.0234 183.494 36.1371C180.54 35.1919 178.88 33.0647 178.308 30.0827C177.886 27.8834 178.11 25.683 178.532 23.4638Z" fill="#BBBBBB"></path><path d="M147.082 30.7692C148.299 24.6293 149.509 18.5255 150.72 12.4219C150.878 11.6233 150.891 11.6133 151.706 11.6121C152.414 11.6111 153.122 11.6082 153.83 11.6139C154.363 11.6182 154.416 11.6855 154.32 12.1979C154.211 12.7795 154.096 13.3601 153.987 13.9415C153.982 13.9662 153.999 13.995 154.018 14.0624C154.277 13.8201 154.516 13.5814 154.771 13.3625C156.248 12.0964 157.956 11.4319 159.904 11.3116C161.593 11.2073 163.151 11.5318 164.548 12.5001C164.889 12.7364 165.177 13.0493 165.484 13.3333C165.708 13.541 165.706 13.7623 165.479 13.966C164.727 14.6402 163.97 15.3088 163.218 15.9829C163 16.179 162.811 16.1581 162.628 15.9367C161.223 14.2358 158.795 14.2679 157.092 15.0591C154.567 16.2317 153.189 18.3198 152.638 20.9451C151.656 25.6215 150.769 30.3179 149.841 35.0059C149.802 35.2041 149.798 35.4249 149.702 35.5915C149.615 35.7423 149.427 35.9297 149.279 35.9349C148.341 35.9674 147.401 35.9542 146.462 35.9545C146.201 35.9545 146.096 35.8155 146.135 35.5642C146.161 35.393 146.191 35.2223 146.225 35.0525C146.508 33.6366 146.791 32.221 147.082 30.7692Z" fill="#BBBBBB"></path><path d="M170.973 12.4413C171.141 11.6131 171.141 11.6122 171.928 11.611C172.621 11.61 173.314 11.6072 174.008 11.6127C174.6 11.6174 174.659 11.6929 174.542 12.2828C173.759 16.2327 172.972 20.1817 172.19 24.1319C171.458 27.8272 170.733 31.5236 170.003 35.2192C169.862 35.9357 169.831 35.9574 169.093 35.9591C168.385 35.9608 167.677 35.9612 166.97 35.9589C166.281 35.9567 166.255 35.9241 166.395 35.231C167.167 31.3967 167.943 27.5631 168.713 23.7284C169.467 19.9785 170.215 16.2276 170.973 12.4413Z" fill="#BBBBBB"></path></g><defs><clipPath id="clip0_1376_5457"><rect width="222" height="37" fill="white"></rect></clipPath></defs></svg>