<svg xmlns="http://www.w3.org/2000/svg" width="118" height="37" viewBox="0 0 118 37" fill="none"><g clip-path="url(#clip0_1377_4413)"><path d="M1.58036 26.7462C1.26359 26.189 1.45933 25.8314 2.05731 25.8018C2.74447 25.7678 3.43214 25.7432 4.11895 25.7035C4.45239 25.6842 4.60514 25.4813 4.60728 25.1569C4.60839 24.9886 4.6094 24.8202 4.6094 24.6519C4.60952 18.2559 4.61533 11.86 4.60134 5.46401C4.59979 4.75242 4.51964 4.03599 4.41408 3.331C4.30143 2.57868 3.85604 1.83849 2.76826 1.91577C2.23907 1.95337 1.70068 1.86762 1.16679 1.83271C0.857779 1.81251 0.641968 1.70266 0.644554 1.33573C0.647182 0.962989 0.885012 0.920634 1.16734 0.920336C2.47329 0.918959 3.77957 0.937883 5.0851 0.914761C7.813 0.866449 10.5405 0.750441 13.2682 0.75C15.3234 0.749668 17.2403 1.30487 18.7903 2.72745C19.6664 3.53156 20.2132 4.56909 20.3526 5.75508C20.4791 6.83135 20.4182 7.90949 19.994 8.93691C19.5275 10.0666 18.7802 10.9708 17.7779 11.6637C17.054 12.1642 16.3145 12.6423 15.5156 13.1745C15.9643 13.3591 16.3702 13.5098 16.7623 13.6902C18.4946 14.4876 20.1445 15.4303 21.0183 17.2116C22.375 19.9777 21.7021 23.856 18.5543 25.615C17.2937 26.3195 15.9521 26.7563 14.5262 26.8923C13.3098 27.0084 12.0829 27.0847 10.8623 27.0663C9.82874 27.0507 8.79972 26.8318 7.76479 26.7803C6.58666 26.7215 5.40423 26.7417 4.22366 26.7406C3.35242 26.7399 2.48116 26.7602 1.58036 26.7462ZM8.2971 17.5824C8.2971 18.8367 8.27332 20.0916 8.30439 21.3452C8.33076 22.4091 8.41531 23.4718 8.48397 24.5344C8.53048 25.2543 8.9043 25.7 9.61023 25.913C10.7267 26.2498 11.8528 26.3661 13.0029 26.1601C14.6972 25.8565 16.0006 25.0048 16.804 23.4518C17.4726 22.1597 17.64 20.7995 17.4261 19.3734C17.1761 17.7061 16.3376 16.3766 15.0376 15.3467C13.3108 13.9787 11.2875 13.5712 9.1292 13.6834C8.54948 13.7135 8.30126 13.9737 8.29864 14.5537C8.29421 15.5326 8.29722 16.5116 8.2971 17.5824ZM14.8887 3.4901C14.2877 2.81156 13.5474 2.34835 12.6907 2.05461C11.6442 1.69582 10.5723 1.84219 9.50671 1.88402C9.28294 1.8928 9.05711 1.96656 8.84149 2.03808C8.48437 2.15653 8.29693 2.40663 8.29719 2.79428C8.29931 5.91194 8.30114 9.02961 8.29442 12.1473C8.29358 12.5364 8.50971 12.6915 8.84375 12.7529C8.94797 12.772 9.05808 12.7579 9.16535 12.7624C10.5853 12.8222 12.0049 12.8952 13.4255 12.934C13.7757 12.9435 14.2066 12.9533 14.4678 12.7726C15.7372 11.8947 16.519 10.7197 16.7145 9.13135C16.9805 6.97056 16.3274 5.14888 14.8887 3.4901Z" fill="#BBBBBB"></path><path d="M54.7421 24.1282C54.7483 24.4186 54.7611 24.7091 54.7592 24.9994C54.7565 25.414 54.9316 25.678 55.3661 25.7058C55.9912 25.746 56.6186 25.7567 57.2427 25.808C57.515 25.8304 57.8542 25.8061 57.8913 26.2258C57.9174 26.5224 57.808 26.7145 57.4941 26.7093C56.6063 26.6946 55.7189 26.6478 54.8312 26.6448C53.8664 26.6415 52.9015 26.6758 51.9366 26.689C51.154 26.6997 50.3707 26.7217 49.5893 26.6943C49.4427 26.6891 49.1885 26.474 49.189 26.3566C49.1897 26.1986 49.3633 25.9415 49.5089 25.9039C49.8568 25.8141 50.232 25.8305 50.5957 25.7988C50.8831 25.7737 51.1874 25.7886 51.4503 25.693C51.6038 25.6373 51.7806 25.4059 51.7923 25.2426C51.8555 24.3608 51.8962 23.4757 51.8976 22.5917C51.9056 17.543 51.8976 12.4943 51.9036 7.44565C51.9042 6.94427 52.0024 6.44159 51.9851 5.94192C51.9568 5.12269 51.9151 4.299 51.796 3.4893C51.6922 2.78375 51.3708 2.58466 50.6596 2.56812C50.2336 2.55821 49.8036 2.5427 49.3853 2.47199C49.2325 2.44617 48.9739 2.20687 48.9954 2.14545C49.0673 1.94 49.2359 1.7638 49.3864 1.59303C49.4237 1.55082 49.5331 1.56245 49.6089 1.56468C51.1857 1.61094 52.702 1.26813 54.2113 0.868478C54.8753 0.692646 55.0712 0.880378 55.0358 1.57883C54.9949 2.38555 54.9574 3.19308 54.9479 4.0006C54.9334 5.23966 54.956 6.47915 54.9413 7.7182C54.9211 9.41299 54.875 11.1075 54.8504 12.8022C54.8154 15.2156 54.7894 17.6291 54.7622 20.0426C54.7612 20.1308 54.7874 20.2194 54.8234 20.4538C55.5214 20.0167 56.2135 19.686 56.7811 19.2086C58.4156 17.8339 60.0148 16.4163 61.5954 14.9801C62.1174 14.5058 62.4931 13.9037 62.5056 13.1458C62.5112 12.8015 62.4055 12.5875 62.0218 12.5712C61.6259 12.5543 61.231 12.5142 60.8355 12.4877C60.6977 12.4784 60.5265 12.5286 60.4286 12.4641C60.2694 12.3593 60.1579 12.1826 60.0263 12.0362C60.1706 11.912 60.3122 11.6854 60.4595 11.6817C61.0386 11.6671 61.6197 11.7509 62.1996 11.7461C63.2562 11.7374 64.3124 11.6838 65.369 11.6647C65.8554 11.656 65.9408 11.7847 65.6775 12.2012C65.3694 12.6884 65.0203 13.1541 64.6515 13.5982C63.5144 14.9674 62.1416 16.0892 60.7707 17.2116C60.3576 17.5498 59.9517 17.8967 59.5415 18.2383C59.3151 18.4267 59.2109 18.6007 59.4479 18.8851C60.1785 19.7615 60.8798 20.6621 61.6005 21.5467C62.3984 22.526 63.1866 23.5141 64.0139 24.4684C64.7182 25.2807 65.4496 26.0844 66.6896 25.9929C66.8336 25.9823 67.019 26.0202 67.1226 26.1085C67.244 26.212 67.3531 26.3937 67.3572 26.5445C67.3595 26.6295 67.1427 26.7919 67.0196 26.7969C66.3829 26.8229 65.7443 26.7985 65.1069 26.8129C64.5724 26.825 64.0325 26.826 63.5058 26.904C62.6795 27.0264 62.2475 26.529 61.8089 25.9717C60.3307 24.0938 58.839 22.2266 57.3528 20.355C57.1763 20.1328 57.0108 20.0668 56.7359 20.2585C56.2237 20.6157 55.6698 20.9129 55.1498 21.2597C54.9923 21.3647 54.8893 21.5508 54.7389 21.7661C54.725 22.5977 54.7335 23.3629 54.7421 24.1282Z" fill="#BBBBBB"></path><path d="M107.98 25.2203C106.779 22.3996 105.602 19.6077 104.409 16.8224C103.912 15.6625 103.39 14.5132 102.863 13.3662C102.64 12.88 102.264 12.6181 101.692 12.6622C101.379 12.6863 101.047 12.6517 101.044 12.2118C101.041 11.784 101.348 11.6646 101.692 11.6678C102.303 11.6736 102.914 11.7502 103.525 11.7451C104.965 11.733 106.406 11.6872 107.846 11.6624C108.142 11.6573 108.448 11.6635 108.5 12.0682C108.546 12.4241 108.396 12.6278 108.038 12.6606C107.855 12.6773 107.669 12.6674 107.485 12.6694C106.705 12.6777 106.298 13.1667 106.523 13.925C106.738 14.6518 107.02 15.3618 107.311 16.063C108.099 17.9602 108.9 19.8521 109.714 21.7383C109.91 22.1924 110.177 22.6161 110.411 23.0538C110.472 23.0582 110.532 23.0626 110.593 23.067C110.745 22.8054 110.948 22.5606 111.042 22.2796C111.938 19.6097 112.827 16.9371 113.686 14.2553C113.798 13.9059 113.781 13.4951 113.739 13.1223C113.69 12.6886 113.299 12.6118 112.943 12.5862C112.546 12.5576 112.145 12.5745 111.745 12.5762C111.432 12.5775 111.267 12.4593 111.265 12.115C111.263 11.7774 111.394 11.6446 111.729 11.6576C112.647 11.6932 113.565 11.7347 114.483 11.7361C115.001 11.7368 115.518 11.6588 116.035 11.6242C116.401 11.5998 116.77 11.5571 117.133 11.5857C117.3 11.5988 117.567 11.7445 117.587 11.8641C117.615 12.0294 117.476 12.2419 117.364 12.4045C117.305 12.4908 117.153 12.5612 117.045 12.5588C116.364 12.544 116.061 13.0238 115.829 13.5215C115.089 15.109 114.358 16.702 113.674 18.3141C112.603 20.8361 111.636 23.4033 110.511 25.9002C109.14 28.943 107.643 31.9292 106.218 34.9485C105.9 35.6231 105.447 36.041 104.686 36.1535C103.994 36.2557 103.318 36.4667 102.626 36.5633C102.245 36.6165 101.843 36.5499 101.455 36.4998C101.347 36.4858 101.256 36.3382 101.158 36.252C101.248 36.1623 101.324 36.0452 101.432 35.9876C101.942 35.7145 102.481 35.4889 102.974 35.1882C103.867 34.6437 104.436 33.7825 105.04 32.9649C106.272 31.2993 107.517 29.643 108.438 27.7739C108.657 27.3307 108.723 26.9358 108.49 26.4785C108.29 26.0874 108.158 25.662 107.98 25.2203Z" fill="#BBBBBB"></path><path d="M85.7343 10.1918C85.7033 13.2159 85.6771 16.1942 85.6393 19.1723C85.6206 20.6371 85.5592 22.1016 85.561 23.5662C85.5616 24.1072 85.662 24.6531 85.7665 25.1871C85.8332 25.5285 86.0652 25.7222 86.4613 25.7166C86.8564 25.711 87.2546 25.7559 87.6471 25.8099C87.9271 25.8484 88.2568 25.8707 88.2192 26.3C88.1858 26.68 87.9023 26.7175 87.6202 26.7129C86.257 26.6909 84.8941 26.6363 83.531 26.6327C82.4904 26.6299 81.4499 26.6994 80.4092 26.7036C80.2263 26.7044 80.001 26.5784 79.8765 26.439C79.8112 26.3659 79.8687 26.0676 79.9652 25.9941C80.1203 25.8759 80.3508 25.8245 80.5547 25.8073C81.1323 25.7587 81.7124 25.7322 82.292 25.7151C82.7796 25.7007 82.8866 25.4391 82.8856 24.9973C82.8743 20.226 82.8789 15.4547 82.8786 10.6834C82.8785 8.4354 82.8783 6.18739 82.8758 3.93938C82.8746 2.88151 82.565 2.57336 81.5147 2.57143C81.2076 2.57087 80.8982 2.59081 80.594 2.56046C80.2635 2.52749 79.9996 2.38525 80.0235 1.98517C80.0463 1.60309 80.3338 1.57439 80.6166 1.56493C82.1653 1.5131 83.6784 1.24886 85.1643 0.81989C85.6338 0.684358 85.9036 0.856773 85.9088 1.35974C85.9134 1.81425 85.8412 2.26897 85.8273 2.72434C85.7894 3.9593 85.7527 5.19451 85.7377 6.42989C85.7226 7.6684 85.7343 8.90723 85.7343 10.1918Z" fill="#BBBBBB"></path><path d="M92.5012 23.9319C93.6998 24.7642 95.0033 25.1503 96.4248 25.2615C97.91 25.3776 99.2987 25.0899 100.658 24.5324C100.83 24.4621 101.068 24.5524 101.275 24.5683C101.181 24.7558 101.136 25.0106 100.985 25.1204C99.5365 26.1748 97.9564 27.0291 96.1655 27.2201C93.5137 27.5029 91.0566 26.9552 89.1938 24.8641C88.3336 23.8984 87.8632 22.71 87.6896 21.438C87.4465 19.6566 87.4595 17.8748 88.1228 16.1683C89.0973 13.6611 90.7592 11.8881 93.5191 11.363C94.7794 11.1232 95.9822 11.3753 97.139 11.8765C98.8476 12.6168 100.169 13.7978 101.138 15.3815C101.521 16.0058 101.476 16.1997 100.753 16.3363C98.5532 16.7521 96.3521 17.1655 94.1431 17.5294C93.0622 17.7074 91.9643 17.7927 90.8709 17.8814C90.4192 17.9181 90.2717 18.1963 90.2666 18.5415C90.2399 20.3405 90.5645 22.0308 91.9143 23.3679C92.0994 23.5513 92.287 23.732 92.5012 23.9319ZM95.5485 12.6669C94.2019 11.7409 93.0253 12.1155 92.0638 13.1175C91.1189 14.1023 90.7498 15.3583 90.4678 16.6427C90.4489 16.7289 90.6535 16.9468 90.7745 16.9643C91.0902 17.0099 91.4234 17.0188 91.7386 16.9708C93.6208 16.684 95.4988 16.3691 97.381 16.0819C97.9282 15.9984 98.1405 15.9496 97.7957 15.2306C97.3001 14.1972 96.5604 13.3526 95.5485 12.6669Z" fill="#BBBBBB"></path><path d="M31.142 17.3477C29.8605 17.4986 28.6202 17.6498 27.3789 17.7936C27.0005 17.8374 26.6198 17.8844 26.2398 17.8873C25.836 17.8904 25.6645 18.149 25.6545 18.4607C25.5995 20.1754 25.8843 21.8031 27.0699 23.1457C28.318 24.5592 29.9512 25.11 31.7881 25.2612C33.289 25.3847 34.6918 25.0941 36.063 24.5231C36.2239 24.4561 36.448 24.5395 36.6428 24.5532C36.5569 24.7424 36.5232 25.0015 36.377 25.11C34.9232 26.1879 33.323 27.04 31.518 27.2279C29.0135 27.4886 26.659 27.0087 24.8072 25.1132C23.8152 24.0978 23.2708 22.841 23.0701 21.4597C22.8115 19.6793 22.8588 17.9051 23.493 16.1895C24.2871 14.0415 25.6831 12.4378 27.859 11.6164C29.3893 11.0388 30.9259 11.2062 32.4136 11.8333C34.1726 12.5747 35.542 13.7686 36.5279 15.4017C36.8953 16.0103 36.8434 16.1929 36.1547 16.3371C34.4997 16.6838 32.8404 17.0104 31.142 17.3477ZM32.2531 13.8345C31.9078 13.5128 31.5753 13.176 31.2148 12.8722C30.0038 11.8519 28.6374 11.9082 27.53 13.0298C26.5838 13.988 26.1719 15.2009 25.8856 16.4804C25.7909 16.9035 25.9253 17.0196 26.3045 16.984C27.2455 16.8957 28.1909 16.8361 29.1254 16.702C30.4066 16.5182 31.6795 16.2765 32.9558 16.0587C33.276 16.004 33.4432 15.8236 33.2714 15.5183C32.9607 14.966 32.6122 14.4347 32.2531 13.8345Z" fill="#BBBBBB"></path><path d="M68.8657 19.3484C69.0198 20.5752 69.2393 21.7336 69.9726 22.7321C70.8938 23.9866 72.1426 24.7146 73.6396 25.0618C75.5614 25.5075 77.4228 25.3237 79.2329 24.5454C79.401 24.4732 79.6734 24.4074 79.7873 24.4897C80.0831 24.7034 79.8814 24.9478 79.6693 25.0723C78.7629 25.6046 77.8628 26.1553 76.9189 26.6148C75.6216 27.2463 74.2101 27.4037 72.7936 27.2559C69.564 26.9188 67.0235 25.1876 66.3726 21.7349C65.9591 19.5409 66.0796 17.3761 67.0784 15.3527C68.1535 13.1747 69.8458 11.6773 72.3304 11.3191C73.9025 11.0924 75.3526 11.5849 76.7139 12.3653C78.0073 13.1069 78.9794 14.158 79.7631 15.4033C80.1373 15.9978 80.0775 16.2052 79.3864 16.3351C77.1701 16.7516 74.9528 17.1659 72.7277 17.5322C71.6616 17.7077 70.5787 17.7922 69.5002 17.8795C69.0297 17.9176 68.9094 18.1977 68.8726 18.572C68.8488 18.8146 68.866 19.0611 68.8657 19.3484ZM76.1923 14.7922C75.6242 14.1622 75.1001 13.4848 74.4787 12.9122C73.3075 11.8328 71.8908 11.9029 70.7668 13.0252C69.7731 14.0175 69.3918 15.3001 69.0711 16.6081C69.0106 16.855 69.1423 16.9944 69.3972 16.9797C70.0827 16.9401 70.7741 16.9344 71.4516 16.8361C72.8079 16.6394 74.1534 16.3701 75.5089 16.1682C76.7474 15.9838 76.7815 15.9495 76.1923 14.7922Z" fill="#BBBBBB"></path><path d="M43.0514 20.2899C43.0515 21.7283 43.0505 23.1208 43.052 24.5132C43.053 25.4275 43.3957 25.7772 44.327 25.7957C44.926 25.8076 45.5264 25.7786 46.124 25.8101C46.3519 25.8221 46.595 25.9189 46.7885 26.043C46.8777 26.1003 46.9308 26.349 46.8799 26.4518C46.8203 26.5724 46.6302 26.6997 46.4958 26.7008C45.9002 26.7053 45.3044 26.6518 44.7083 26.6445C43.287 26.6269 41.8655 26.6108 40.4443 26.6197C39.6795 26.6245 38.9152 26.6828 38.1506 26.7153C37.8794 26.7269 37.6529 26.6631 37.622 26.3427C37.5875 25.9846 37.8269 25.8365 38.1212 25.8154C38.5799 25.7826 39.0424 25.8037 39.5032 25.7975C40.101 25.7895 40.1927 25.6981 40.1929 25.0993C40.194 21.3963 40.1949 17.6933 40.1925 13.9903C40.1918 12.9499 39.9038 12.6715 38.8506 12.6696C38.574 12.6691 38.2966 12.6557 38.0211 12.6725C37.6828 12.693 37.5032 12.5942 37.5152 12.2146C37.5266 11.8546 37.6063 11.6338 38.0363 11.6552C38.9384 11.7001 39.8423 11.7436 40.7448 11.7339C41.3373 11.7274 41.9276 11.6033 42.521 11.5752C43.0571 11.5499 43.1286 11.6797 43.0692 12.2335C43.0335 12.5666 43.0454 12.9063 43.0565 13.2423C43.0686 13.6052 43.2247 13.6787 43.5655 13.4608C44.1567 13.0826 44.7172 12.6545 45.3212 12.299C46.8089 11.4233 48.1345 11.5585 49.3017 12.7748C49.6342 13.1211 49.6677 13.5188 49.5517 13.9215C49.4176 14.387 49.2024 14.829 49.0249 15.2822C48.8756 15.6637 48.6722 15.6135 48.4044 15.3882C47.9515 15.0071 47.5202 14.5766 47.0092 14.2931C46.041 13.756 44.3547 14.0711 43.587 14.837C43.2038 15.2194 43.0589 15.6884 43.0552 16.2043C43.0455 17.5509 43.0516 18.8975 43.0514 20.2899Z" fill="#BBBBBB"></path><path d="M11.9288 35.9887C11.6408 35.7047 11.3595 35.4435 11.1498 35.1341C10.7317 34.5172 10.3544 33.8728 9.95567 33.2427C9.90358 33.1604 9.8242 33.0952 9.67911 32.9362C9.67911 33.8496 9.68111 34.6537 9.67838 35.4579C9.67669 35.9591 9.43927 36.1358 8.95945 35.9668C8.86913 35.935 8.77026 35.771 8.76935 35.6672C8.75685 34.2302 8.75576 32.7931 8.77093 31.3562C8.77206 31.2497 8.90591 31.0694 9.00056 31.0531C9.28666 31.0039 9.59344 30.8166 9.82968 31.2337C10.3243 32.107 10.8728 32.9499 11.3991 33.8053C11.4292 33.8544 11.458 33.9043 11.5818 33.9468C11.5929 33.81 11.613 33.6732 11.6137 33.5362C11.6175 32.8024 11.6291 32.0683 11.6114 31.3349C11.6029 30.9872 11.7763 30.9308 12.0657 30.9381C12.332 30.9448 12.5438 30.9443 12.5404 31.3138C12.5272 32.7508 12.5273 34.188 12.5394 35.625C12.5433 36.0881 12.2239 35.9715 11.9288 35.9887Z" fill="#BBBBBB"></path><path d="M85.9183 33.9696C85.9184 33.1441 85.9065 32.3643 85.9274 31.5853C85.9323 31.4036 86.0269 31.0841 86.1172 31.0704C86.4361 31.022 86.7955 30.8058 87.0598 31.2857C87.5286 32.1373 88.0736 32.9473 88.5881 33.7739C88.617 33.8203 88.6577 33.8592 88.7766 34.0024C88.7766 33.0697 88.7914 32.2529 88.7699 31.4371C88.7602 31.0672 88.8685 30.9217 89.2606 30.93C89.6092 30.9374 89.7057 31.0635 89.7026 31.3917C89.69 32.7673 89.7032 34.1431 89.6892 35.5186C89.6877 35.6712 89.5669 35.9543 89.5116 35.9518C89.2617 35.9406 88.8999 35.9299 88.7875 35.7717C88.224 34.979 87.7272 34.1394 87.204 33.318C87.1185 33.1837 87.0187 33.0584 86.84 32.9536C86.84 33.7879 86.8421 34.6221 86.8392 35.4564C86.8374 35.9843 86.784 36.0162 86.2542 35.9927C85.9855 35.9807 85.9149 35.8587 85.918 35.6204C85.9247 35.0855 85.919 34.5505 85.9183 33.9696Z" fill="#BBBBBB"></path><path d="M78.0729 30.9953C78.5884 30.9811 79.0879 30.9038 79.5495 31.0026C80.5335 31.213 80.8862 32.0089 81.0065 32.89C81.1167 33.6968 81.0522 34.5037 80.5822 35.223C80.1173 35.9347 79.4069 36.1122 78.6289 36.0718C77.8339 36.0306 77.2169 35.6268 76.9087 34.9003C76.5286 34.0042 76.5079 33.0663 76.8755 32.1498C77.0925 31.6088 77.4445 31.1809 78.0729 30.9953ZM79.8528 34.5576C79.9004 33.9871 80.0272 33.4093 79.9752 32.848C79.913 32.176 79.3645 31.6909 78.8598 31.6895C78.2566 31.6878 77.8539 32.0494 77.6992 32.8293C77.6236 33.2104 77.606 33.622 77.662 34.0054C77.7433 34.5627 77.9667 35.0699 78.6011 35.2285C79.1784 35.3728 79.5236 35.0379 79.8528 34.5576Z" fill="#BBBBBB"></path><path d="M49.0778 30.9658C49.8936 31.2214 50.2983 31.7972 50.4868 32.5484C50.6647 33.2573 50.6309 33.9636 50.4002 34.6586C50.1178 35.5092 49.41 36.048 48.5347 36.0806C47.4938 36.1194 46.8255 35.7415 46.4532 34.8437C46.0065 33.7663 46.0524 32.6913 46.657 31.6874C47.0636 31.0121 47.7758 30.9121 48.4952 30.9005C48.6771 30.8976 48.8596 30.9357 49.0778 30.9658ZM48.5795 35.2412C49.1197 35.1121 49.4451 34.737 49.49 34.2245C49.5389 33.6651 49.5175 33.0825 49.4125 32.5316C49.3095 31.9908 48.8477 31.69 48.3605 31.69C47.9512 31.69 47.3807 32.0604 47.3206 32.519C47.2394 33.1383 47.2199 33.789 47.3218 34.4019C47.4192 34.9868 47.8944 35.2472 48.5795 35.2412Z" fill="#BBBBBB"></path><path d="M81.7519 31.0116C82.4973 31.0015 83.2235 30.9497 83.9251 31.0569C84.9622 31.2153 85.3825 32.6101 84.6766 33.4119C84.546 33.5602 84.3891 33.6857 84.2313 33.834C84.5962 34.5326 84.9517 35.213 85.3133 35.9052C84.4644 36.1156 84.3378 36.0615 83.9992 35.3868C83.8487 35.0871 83.7068 34.7826 83.5437 34.4898C83.4714 34.36 83.3755 34.2271 83.2566 34.1423C82.9741 33.9409 82.7132 34.0707 82.7033 34.4106C82.691 34.8381 82.6968 35.266 82.695 35.6938C82.6934 36.0675 82.408 35.9877 82.197 35.9834C81.9918 35.9792 81.6849 36.0876 81.6865 35.7107C81.6931 34.1541 81.7091 32.5975 81.7519 31.0116ZM83.1773 33.2348C83.2079 33.2343 83.2391 33.2372 83.2692 33.2327C83.7894 33.1541 84.1007 32.8241 84.0551 32.4009C84.0064 31.9481 83.6659 31.7602 83.0072 31.7629C82.3621 31.7655 82.679 32.2422 82.6032 32.5241C82.584 32.5953 82.6094 32.6772 82.5993 32.7523C82.5476 33.1385 82.7236 33.2867 83.1773 33.2348Z" fill="#BBBBBB"></path><path d="M24.7983 32.8683C24.799 32.3181 24.8049 31.8137 24.7981 31.3095C24.7948 31.0702 24.8678 30.9281 25.1365 30.9424C25.7307 30.974 26.3266 30.983 26.9191 31.0333C27.5195 31.0843 27.9291 31.4573 28.0754 32C28.2149 32.5178 28.1775 33.0677 27.7283 33.4842C27.605 33.5985 27.4801 33.711 27.3461 33.8333C27.7172 34.5384 28.0757 35.2195 28.4414 35.9143C27.5469 36.1085 27.4654 36.0714 27.1034 35.3487C26.9668 35.076 26.8355 34.8004 26.6903 34.5323C26.626 34.4134 26.5559 34.2577 26.4481 34.2109C26.2663 34.1319 26.0502 34.0966 25.8531 34.1099C25.8005 34.1134 25.7376 34.3584 25.7267 34.4962C25.7062 34.7544 25.7375 35.0168 25.7155 35.2747C25.6896 35.5796 25.8978 35.9969 25.2709 36.003C24.6163 36.0093 24.8112 35.5721 24.804 35.2521C24.7865 34.4732 24.7983 33.6935 24.7983 32.8683ZM25.7592 33.13C25.9781 33.1639 26.1985 33.2337 26.4155 33.2243C26.8672 33.2048 27.2073 32.8234 27.1765 32.4188C27.1419 31.964 26.8004 31.7745 26.1472 31.7598C25.55 31.7464 25.7513 32.1648 25.7245 32.4564C25.7064 32.6524 25.7303 32.8522 25.7592 33.13Z" fill="#BBBBBB"></path><path d="M4.79326 33.9559C4.79765 34.8403 4.98309 35.1383 5.56725 35.2434C6.15657 35.3494 6.62768 34.9669 6.6337 34.3551C6.64333 33.3761 6.64744 32.3968 6.63205 31.418C6.62666 31.075 6.71708 30.9274 7.09513 30.9297C7.46346 30.932 7.57095 31.0608 7.56438 31.4125C7.54666 32.3606 7.5204 33.3112 7.56794 34.2573C7.63725 35.6364 6.53403 36.2675 5.30875 36.0474C4.3194 35.8696 3.87515 35.2934 3.87216 34.2882C3.86931 33.3245 3.88659 32.3604 3.86461 31.3971C3.85604 31.0219 4.0051 30.934 4.35051 30.9318C4.69683 30.9297 4.80494 31.0529 4.79814 31.388C4.78107 32.229 4.79297 33.0706 4.79326 33.9559Z" fill="#BBBBBB"></path><path d="M66.0398 35.9875C65.6248 35.9687 65.6442 35.6357 65.5943 35.4144C65.4849 34.929 65.2362 34.7062 64.7315 34.7947C64.6421 34.8104 64.5476 34.7969 64.4555 34.7969C63.5202 34.7969 63.5014 34.7902 63.1912 35.6551C62.998 36.1937 62.6042 35.9296 62.1875 35.9845C62.2727 35.6886 62.3289 35.4456 62.4121 35.2122C62.8663 33.937 63.3513 32.6721 63.7745 31.3869C63.9642 30.8107 64.4541 31.1313 64.7788 30.9762C64.8293 30.952 65.0881 31.215 65.15 31.3822C65.6571 32.7518 66.1414 34.1297 66.6291 35.5064C66.6734 35.6313 66.6929 35.7649 66.7382 35.9541C66.4921 35.967 66.2855 35.9779 66.0398 35.9875ZM64.3124 32.3905C64.1273 32.9244 63.9421 33.4582 63.7447 34.0273C64.2344 34.0273 64.624 34.0273 65.0746 34.0273C64.8774 33.4169 64.6971 32.8568 64.5084 32.2996C64.5063 32.2934 64.3947 32.3241 64.3124 32.3905Z" fill="#BBBBBB"></path><path d="M23.5454 35.1725C24.0153 35.3976 23.5681 35.6751 23.6931 35.9811C22.6875 35.9811 21.7404 35.9889 20.7939 35.9672C20.7135 35.9653 20.571 35.767 20.5699 35.6589C20.555 34.1913 20.5531 32.7234 20.5747 31.2559C20.5763 31.1503 20.7822 30.9615 20.8981 30.9575C21.6801 30.9307 22.4636 30.9506 23.2463 30.9395C23.5433 30.9353 23.6028 31.0829 23.603 31.3378C23.6032 31.602 23.5638 31.7826 23.2329 31.7695C22.8191 31.753 22.4038 31.7771 21.9897 31.7651C21.71 31.757 21.5778 31.8359 21.5667 32.1482C21.5342 33.0531 21.5211 33.0526 22.4314 33.0529C22.6003 33.053 22.7697 33.0623 22.9379 33.0516C23.2385 33.0324 23.4249 33.0852 23.4254 33.4637C23.4259 33.8391 23.2477 33.9008 22.9422 33.8805C22.7588 33.8684 22.5739 33.8788 22.3897 33.8789C21.5976 33.8793 21.3503 34.2028 21.5977 34.9581C21.6288 35.0531 21.8191 35.1479 21.9396 35.1533C22.4606 35.1767 22.9831 35.1668 23.5454 35.1725Z" fill="#BBBBBB"></path><path d="M93.2652 33.2089C93.5 32.5759 93.7471 31.9834 93.9271 31.3713C94.0919 30.811 94.5854 31.1353 94.896 30.9761C94.9398 30.9536 95.1851 31.1912 95.2417 31.3436C95.7665 32.7564 96.2712 34.1765 96.7782 35.5957C96.813 35.693 96.8204 35.8 96.8401 35.9006C96.09 36.1297 95.9075 36.0632 95.7127 35.342C95.5938 34.9018 95.3776 34.7298 94.9385 34.7935C94.8181 34.8109 94.6931 34.796 94.5702 34.796C93.63 34.796 93.63 34.796 93.2946 35.6603C93.1512 36.0298 92.9571 36.0814 92.3154 35.9028C92.6268 35.0143 92.9375 34.1275 93.2652 33.2089ZM94.9381 34.0595C95.0101 33.9822 95.1579 33.8819 95.1424 33.8311C94.9734 33.2778 94.7789 32.7322 94.5913 32.1846C94.556 32.188 94.5207 32.1914 94.4854 32.1949C94.2907 32.795 94.0959 33.3951 93.8795 34.0617C94.285 34.0617 94.5725 34.0617 94.9381 34.0595Z" fill="#BBBBBB"></path><path d="M18.0077 33.6363C18.2545 32.9101 18.4858 32.2168 18.7183 31.524C18.934 30.8815 19.0452 30.8278 19.8294 31.031C19.6761 31.49 19.5262 31.9471 19.3707 32.4022C19.0018 33.4823 18.6175 34.5573 18.2678 35.6435C18.1694 35.9488 17.9897 36.0186 17.7211 35.9878C17.4583 35.9577 17.1391 36.1192 16.9992 35.7034C16.4991 34.2177 15.9762 32.7397 15.4634 31.2583C15.4398 31.1899 15.431 31.1164 15.416 31.0487C16.1456 30.7789 16.3572 30.8638 16.5939 31.5509C16.9447 32.5693 17.2785 33.5935 17.6472 34.6979C17.7785 34.3072 17.8856 33.9884 18.0077 33.6363Z" fill="#BBBBBB"></path><path d="M29.5662 35.8425C29.3398 35.7228 29.1449 35.6194 28.9277 35.5042C29.0843 35.2406 29.2062 35.0354 29.3253 34.835C29.6917 34.9722 30.0216 35.1262 30.3684 35.2138C30.5632 35.263 30.8043 35.2517 30.9926 35.182C31.5151 34.9885 31.5856 34.5564 31.1543 34.2082C30.9697 34.0592 30.7323 33.9716 30.5125 33.8697C29.9648 33.6156 29.4381 33.3658 29.2932 32.6797C29.1345 31.9281 29.5294 31.1521 30.2918 30.9826C30.9047 30.8463 31.5318 30.8719 32.1189 31.1879C32.388 31.3327 32.3633 31.4961 32.2497 31.7111C32.1467 31.906 32.072 32.1041 31.7702 31.9471C31.5578 31.8368 31.3111 31.7848 31.0743 31.7298C30.7149 31.6464 30.4109 31.791 30.2807 32.1091C30.1507 32.4266 30.3153 32.71 30.6229 32.8685C30.9345 33.0291 31.2626 33.1577 31.5771 33.3131C32.2088 33.6253 32.5011 34.101 32.4342 34.6866C32.3659 35.2848 31.8957 35.815 31.2951 35.9845C30.7124 36.1489 30.1476 36.1152 29.5662 35.8425Z" fill="#BBBBBB"></path><path d="M61.5465 31.4204C61.4843 31.6957 61.3985 31.9481 61.322 32.1734C60.8953 32.0002 60.5989 31.8473 60.2842 31.7591C59.6931 31.5935 59.14 31.8629 58.9082 32.425C58.6631 33.0197 58.6854 33.6314 58.8014 34.2602C58.9555 35.0952 59.9628 35.5933 60.8691 34.9938C61.0076 34.9021 61.1485 34.814 61.282 34.7282C61.9021 35.1364 61.904 35.3902 61.2784 35.7188C60.463 36.1472 59.6108 36.2696 58.7908 35.7765C58.4842 35.5921 58.1921 35.2826 58.0412 34.9612C57.5304 33.8729 57.5727 32.7575 58.1994 31.7314C58.7339 30.8564 59.9507 30.7576 60.8345 31.0384C61.0776 31.1156 61.2942 31.2755 61.5465 31.4204Z" fill="#BBBBBB"></path><path d="M51.6247 34.6115C51.6249 33.5113 51.638 32.4567 51.6184 31.4026C51.6116 31.0366 51.744 30.9237 52.0983 30.9343C52.7881 30.9547 53.4793 30.9533 54.1693 30.9355C54.5065 30.9268 54.5791 31.077 54.5801 31.3768C54.5811 31.683 54.4552 31.7777 54.1672 31.7683C53.7534 31.7549 53.3385 31.7763 52.9246 31.7646C52.6493 31.7568 52.5548 31.8662 52.5426 32.1402C52.502 33.0515 52.4923 33.051 53.3986 33.0514C53.5674 33.0515 53.7365 33.0591 53.9048 33.0503C54.1968 33.0351 54.4001 33.0681 54.3995 33.4547C54.3989 33.8202 54.2396 33.9079 53.9244 33.8785C53.818 33.8686 53.7098 33.8775 53.6024 33.8776C52.5467 33.8783 52.5467 33.8783 52.5466 34.9526C52.5466 35.1207 52.5478 35.2888 52.5461 35.4569C52.5411 35.9574 52.3061 36.1342 51.8266 35.9652C51.7363 35.9334 51.6453 35.7726 51.6371 35.6651C51.6116 35.3308 51.6258 34.9934 51.6247 34.6115Z" fill="#BBBBBB"></path><path d="M75.5764 30.9398C76.0021 30.8901 76.2378 31.0187 76.1323 31.4357C76.1001 31.5632 75.933 31.7372 75.8146 31.7481C75.3883 31.7873 74.9561 31.7769 74.5268 31.7636C74.237 31.7546 74.1133 31.8536 74.1163 32.1572C74.1272 33.2338 74.0547 33.0281 74.9884 33.0509C75.1571 33.055 75.3269 33.0628 75.4947 33.0498C75.8071 33.0255 75.9721 33.103 75.9724 33.4718C75.9728 33.8559 75.7751 33.89 75.4802 33.8798C75.1583 33.8687 74.835 33.8913 74.5135 33.8756C74.2097 33.8608 74.1077 33.9924 74.1167 34.2825C74.1305 34.7253 74.1026 35.1696 74.1223 35.612C74.1385 35.9774 73.9244 35.9892 73.653 35.9928C73.3699 35.9965 73.19 35.9551 73.1934 35.6016C73.207 34.1802 73.2042 32.7585 73.1947 31.3371C73.1927 31.04 73.3029 30.9309 73.5989 30.9369C74.2433 30.95 74.8881 30.9402 75.5764 30.9398Z" fill="#BBBBBB"></path><path d="M40.9577 32.3743C41.0668 32.5744 41.1595 32.7445 41.2873 32.9791C41.5496 32.4601 41.7801 32.0051 42.0094 31.5496C42.3519 30.8693 42.4872 30.8109 43.3183 31.0296C43.0607 31.5193 42.8149 32.0011 42.5553 32.4755C42.344 32.8618 42.1016 33.2318 41.9026 33.6239C41.817 33.7925 41.7748 33.9975 41.7672 34.1882C41.7478 34.676 41.7486 35.1652 41.7611 35.6534C41.7701 36.0084 41.5374 35.9891 41.2999 35.9889C41.0629 35.9887 40.8234 36.0092 40.8391 35.6538C40.8511 35.3796 40.8073 35.0999 40.8449 34.8304C40.9465 34.1023 40.6404 33.5078 40.2906 32.9107C39.9375 32.3082 39.6183 31.686 39.2832 31.0704C39.9064 30.7849 40.2701 30.8938 40.5306 31.4288C40.677 31.7294 40.805 32.0389 40.9577 32.3743Z" fill="#BBBBBB"></path><path d="M36.3641 31.7961C36.1094 31.7776 35.8938 31.7563 35.6805 31.7699C35.3637 31.7901 35.2013 31.7087 35.2072 31.3431C35.2126 31.0047 35.3591 30.9346 35.656 30.9376C36.6805 30.9479 37.7052 30.9416 38.7245 30.9416C38.7855 31.741 38.7667 31.7616 38.0303 31.7669C37.431 31.7711 37.4293 31.7711 37.4284 32.3763C37.4268 33.4308 37.4131 34.4855 37.4347 35.5396C37.4426 35.9212 37.2812 35.9942 36.9436 35.9983C36.5936 36.0027 36.497 35.8672 36.5014 35.5388C36.5155 34.4693 36.5106 33.3994 36.5012 32.3297C36.4997 32.1558 36.4381 31.9824 36.3641 31.7961Z" fill="#BBBBBB"></path><path d="M68.1361 35.9896C67.3901 35.9857 67.3892 35.9857 67.389 35.2951C67.3885 33.9947 67.4013 32.6941 67.382 31.394C67.3764 31.0155 67.5294 30.9354 67.8708 30.9317C68.2207 30.9279 68.3199 31.0587 68.3155 31.3904C68.3011 32.4917 68.3223 33.5935 68.3048 34.6948C68.2991 35.0534 68.4172 35.1883 68.78 35.1683C69.2088 35.1447 69.6404 35.1771 70.0699 35.1613C70.4069 35.1489 70.4306 35.3417 70.4335 35.5996C70.4364 35.8612 70.3611 35.9967 70.0701 35.9914C69.4405 35.9798 68.8105 35.989 68.1361 35.9896Z" fill="#BBBBBB"></path><path d="M91.5076 30.9524C91.6079 31.0976 91.7173 31.2372 91.7186 31.3778C91.7314 32.7688 91.7122 34.1602 91.7346 35.551C91.7417 35.9942 91.5003 35.9839 91.1834 35.9966C90.8251 36.011 90.7013 35.8879 90.7062 35.5253C90.7235 34.2414 90.7123 32.9571 90.7125 31.6729C90.7126 30.9328 90.7132 30.9328 91.5076 30.9524Z" fill="#BBBBBB"></path><path d="M72.1132 35.918C72.0244 35.9602 71.9651 35.98 71.9047 35.9838C71.1704 36.0294 71.1696 36.0288 71.1693 35.2848C71.1689 34.0004 71.1812 32.7157 71.1623 31.4315C71.1567 31.0547 71.2731 30.9292 71.6573 30.9297C72.0451 30.9302 72.2012 31.0245 72.1912 31.4431C72.1559 32.9244 72.1557 34.4064 72.1132 35.918Z" fill="#BBBBBB"></path><path d="M13.6436 35.422C13.6437 34.0485 13.6563 32.7186 13.6363 31.3891C13.6306 31.006 13.7909 30.9306 14.1274 30.9337C14.4608 30.9367 14.6725 30.9645 14.6654 31.3929C14.6426 32.7528 14.6495 34.1135 14.6626 35.4737C14.666 35.819 14.6096 36.006 14.1926 36.0024C13.7881 35.9989 13.5749 35.9021 13.6436 35.422Z" fill="#BBBBBB"></path><path d="M33.3722 32.1365C33.3724 31.877 33.3959 31.66 33.3679 31.4499C33.306 30.9853 33.5533 30.9151 33.9376 30.9371C34.188 30.9514 34.2952 31.0348 34.2942 31.2901C34.2887 32.7414 34.2856 34.1928 34.2955 35.6441C34.2981 36.0335 34.0422 35.9801 33.7978 35.9919C33.5274 36.0049 33.366 35.9429 33.3693 35.6194C33.3811 34.4737 33.3729 33.3279 33.3722 32.1365Z" fill="#BBBBBB"></path><path d="M54.7473 24.0862C54.7332 23.3623 54.7247 22.5971 54.7302 21.7969C54.7471 22.5229 54.7499 23.2838 54.7473 24.0862Z" fill="#BBBBBB"></path></g><defs><clipPath id="clip0_1377_4413"><rect width="118" height="37" fill="white"></rect></clipPath></defs></svg>