<svg xmlns="http://www.w3.org/2000/svg" width="77" height="37" viewBox="0 0 77 37" fill="none"><g clip-path="url(#clip0_1377_4457)"><path d="M49.5148 36.2742C48.4538 36.6282 47.3826 36.7628 46.3002 36.6708C44.48 36.516 43.1088 35.6311 42.5417 33.674C42.4166 33.242 42.3318 32.7983 42.2181 32.316C42.1497 32.3587 42.0491 32.3989 41.978 32.469C40.7269 33.7024 39.3172 34.7156 37.7376 35.4831C36.597 36.0373 35.4091 36.4306 34.1316 36.5615C32.8332 36.6947 31.5707 36.5984 30.3725 36.086C29.8766 35.874 29.4175 35.5466 28.9901 35.2103C27.9978 34.4294 27.4125 33.379 27.134 32.1855C26.5484 32.8289 26.0038 33.5093 25.3751 34.1003C24.149 35.253 22.7681 36.18 21.084 36.5188C19.4901 36.8394 18.0375 36.5526 16.9211 35.2743C16.2377 34.4918 15.8487 33.5455 15.5955 32.5443C15.5136 32.2208 15.4435 31.8944 15.3486 31.4855C15.2587 31.6557 15.2042 31.7712 15.1391 31.8803C14.6755 32.6571 14.2298 33.4454 13.7395 34.205C13.1836 35.0663 12.3426 35.5964 11.4388 36.0271C10.6355 36.4099 9.78066 36.662 8.89857 36.7279C7.06556 36.8649 5.36126 36.5321 4.07779 35.0705C3.33732 34.2272 2.90104 33.2106 2.7752 32.1066C2.65889 31.0863 2.57797 30.0436 2.65641 29.0242C2.7479 27.8353 2.98215 26.6507 3.23909 25.4828C3.64006 23.6603 4.09688 21.8494 4.55926 20.0411C4.91763 18.6396 5.30838 17.2459 5.70687 15.8551C6.27014 13.8892 6.90385 11.9418 7.40911 9.96142C7.69057 8.85821 7.78786 7.70186 7.69383 6.55414C7.56647 4.99973 6.12773 4.19155 4.8303 4.68975C4.05962 4.98568 3.59339 5.61547 3.35174 6.3735C3.19432 6.86731 3.15668 7.4009 3.08258 7.91913C3.00664 8.45019 2.97976 8.98965 2.87857 9.51528C2.798 9.93375 2.50102 10.2031 2.06896 10.2525C1.61257 10.3047 1.22401 10.1646 0.940669 9.76912C0.609137 9.30639 0.505297 8.78808 0.439396 8.2331C0.296375 7.02865 0.59399 5.90552 1.06033 4.83209C1.58992 3.61306 2.42619 2.62063 3.62088 1.98729C4.44078 1.55264 5.31929 1.23833 6.23504 1.10434C6.9976 0.992773 7.78231 0.934833 8.54984 0.979529C9.51063 1.03548 10.3865 1.41968 11.1535 2.01114C12.4168 2.9854 13.0816 4.32714 13.3273 5.85607C13.4735 6.76596 13.5147 7.71188 13.4502 8.63088C13.389 9.50315 13.1721 10.3729 12.9473 11.2237C12.318 13.6065 11.6478 15.9784 10.9963 18.3554C10.3117 20.8525 9.59643 23.342 8.9643 25.8524C8.72172 26.8157 8.67813 27.8285 8.53154 28.8169C8.44656 29.3899 8.53082 29.9433 8.65141 30.5013C8.97476 31.9974 10.6615 32.5452 11.8968 31.7486C12.685 31.2403 13.2053 30.5012 13.6777 29.7201C14.3789 28.5604 14.9015 27.316 15.3018 26.0287C15.853 24.2561 16.383 22.4748 16.8488 20.6783C17.3912 18.5863 17.8358 16.4691 18.3583 14.3717C18.7436 12.825 19.1931 11.2943 19.6011 9.7531C20.1323 7.74631 20.6603 5.73857 21.1692 3.72608C21.3454 3.02941 21.6086 2.38329 22.0761 1.83743C22.5181 1.3213 23.1223 1.07234 23.7602 0.889109C24.6825 0.624171 25.5981 0.691511 26.4889 0.994611C27.1955 1.235 27.7045 1.95893 27.4497 2.91176C26.886 5.01981 26.3243 7.12837 25.7604 9.23636C25.3457 10.7868 24.9215 12.3347 24.5151 13.8872C24.1353 15.3381 23.7686 16.7925 23.4046 18.2475C22.8749 20.3649 22.339 22.481 21.8333 24.6043C21.6026 25.573 21.3782 26.5502 21.2594 27.5367C21.1398 28.5289 21.1047 29.5388 21.134 30.538C21.1471 30.9855 21.3599 31.4499 21.5692 31.8626C21.7913 32.3005 22.321 32.4441 22.804 32.3409C24.2732 32.0267 25.2325 31.0832 26.0049 29.8601C26.3739 29.2758 26.4283 28.65 26.5126 27.9994C26.6393 27.0219 26.7864 26.0395 27.0304 25.0862C27.4339 23.5098 28.2088 22.0995 29.2371 20.8425C30.0534 19.8447 31.0347 19.0258 32.1491 18.3675C33.1749 17.7616 34.2682 17.3274 35.443 17.1501C36.8911 16.9315 38.3183 16.9739 39.607 17.8055C40.5902 18.4401 41.1125 19.3547 41.2655 20.5109C41.4077 21.5854 41.3109 22.6238 40.8342 23.5971C40.3482 24.5892 39.5365 25.1583 38.4309 25.3387C37.788 25.4436 37.1918 25.3657 36.6181 25.0868C35.6683 24.6251 35.3414 23.8168 35.7145 22.8353C35.8672 22.4339 36.0719 22.075 36.417 21.7729C37.1183 21.1588 38.3053 21.3765 38.7678 22.1479C38.8522 22.2888 38.9755 22.4065 39.1146 22.5761C39.2273 21.937 39.3217 21.3488 38.9989 20.7935C38.5864 20.0838 37.7766 19.7936 36.842 20.0328C35.7392 20.3151 34.9691 21.0207 34.4082 21.9678C33.6229 23.2939 33.0007 24.6912 32.6394 26.1983C32.416 27.13 32.2807 28.0716 32.3473 29.0263C32.4127 29.9637 32.6675 30.8543 33.308 31.5764C33.695 32.0127 34.2001 32.2696 34.7793 32.3842C35.7271 32.5716 36.6077 32.324 37.444 31.9321C38.7615 31.3147 40.0836 30.6982 41.2738 29.8449C41.5218 29.6671 41.8002 29.5112 41.9941 29.2849C42.1457 29.1078 42.2185 28.8445 42.2747 28.6073C42.8208 26.3 43.3299 23.9836 43.9046 21.6836C44.2324 20.3716 44.6428 19.0789 45.0507 17.7885C45.541 16.2374 46.0321 14.6849 46.5889 13.1569C47.2359 11.3813 47.9267 9.6201 48.6525 7.8751C49.0925 6.81727 49.5879 5.77566 50.1475 4.7766C50.5352 4.08453 51.0553 3.46208 51.5513 2.83618C52.2179 1.99484 53.0813 1.3906 54.0405 0.923561C55.1844 0.36662 56.3882 0.216589 57.6487 0.372431C58.2235 0.443496 58.7539 0.580119 59.2575 0.876731C59.9491 1.28409 60.244 1.92552 60.3758 2.66048C60.568 3.73249 60.398 4.78339 60.1307 5.82522C59.6274 7.78685 58.7937 9.61852 57.839 11.3873C56.9202 13.0894 55.9342 14.7592 54.8976 16.3924C54.0148 17.7832 53.0503 19.1259 52.0611 20.4442C51.326 21.4239 50.4996 22.3357 49.7017 23.2673C49.2879 23.7505 48.7976 24.1763 48.437 24.6942C48.2019 25.0319 48.1045 25.4805 48.004 25.8937C47.7906 26.7699 47.5649 27.6482 47.4391 28.5391C47.3139 29.4262 47.2643 30.3248 47.5342 31.2152C47.8136 32.1371 48.6898 32.4996 49.5588 32.3438C50.7992 32.1215 51.789 31.4348 52.742 30.6792C53.1564 30.3505 53.5141 29.9485 53.9378 29.6338C54.3753 29.3089 54.4615 28.8684 54.475 28.3878C54.5217 26.728 55.0017 25.1831 55.6871 23.6875C56.1815 22.609 56.7823 21.5915 57.5225 20.6699C58.6652 19.2471 59.9865 18.0219 61.7015 17.3047C62.9995 16.762 64.3182 16.6637 65.6217 17.2793C66.3618 17.6288 66.9585 18.1749 67.4308 18.8387C67.7709 19.3167 68.0637 19.8283 68.3777 20.325C68.4794 20.0118 68.5706 19.6847 68.6909 19.3687C69.0204 18.5034 69.6499 17.9008 70.4247 17.4298C71.0008 17.0796 71.627 16.8402 72.2944 16.812C73.6889 16.753 74.4983 17.4661 74.1896 18.8967C73.9635 19.9448 73.5369 20.9538 73.1537 21.9629C72.4417 23.838 71.6855 25.6963 70.9692 27.5699C70.6137 28.4999 70.2877 29.4422 69.9846 30.3906C69.8434 30.8321 69.7968 31.3012 70.0085 31.7504C70.2397 32.2412 70.7711 32.4195 71.422 32.2189C72.1299 32.0008 72.7238 31.5899 73.2896 31.1247C74.0136 30.5295 74.7364 29.9337 75.6947 29.7301C76.6119 29.5352 76.9225 30.1588 76.8555 30.8428C76.77 31.716 76.2433 32.3484 75.6077 32.9053C75.1852 33.2756 74.7926 33.6831 74.3495 34.0262C73.693 34.5345 73.0347 35.0537 72.3196 35.4691C71.6149 35.8785 70.8556 36.2112 70.089 36.4925C69.2002 36.8185 68.2773 36.8674 67.3665 36.5142C66.4024 36.1403 65.8422 35.3998 65.592 34.4399C65.4368 33.8447 65.4045 33.2175 65.3184 32.6136C65.1168 32.929 64.9088 33.2886 64.6682 33.625C63.7464 34.9138 62.6447 35.9748 61.0687 36.4309C59.791 36.8007 58.6303 36.5612 57.5807 35.7684C56.6444 35.0613 56.0351 34.1036 55.5522 33.054C55.4398 32.8096 55.314 32.5713 55.1972 32.336C54.8659 32.7316 54.5621 33.1504 54.2023 33.5139C53.025 34.7031 51.6167 35.5331 50.0468 36.0971C49.879 36.1574 49.7074 36.2069 49.5148 36.2742ZM60.5407 25.6502C60.1952 26.7212 59.9369 27.811 59.7979 28.9297C59.7147 29.6 59.6622 30.27 59.809 30.9332C60.0204 31.8883 60.693 32.3989 61.63 32.3135C62.2793 32.2543 62.8118 31.9152 63.248 31.4605C63.8212 30.863 64.2389 30.1544 64.5454 29.3834C65.2119 27.7069 65.8708 26.0272 66.5472 24.3546C66.9496 23.3596 67.0873 22.3454 66.7945 21.3048C66.4995 20.2561 65.5568 19.5701 64.4032 20.1777C63.716 20.5396 63.166 21.0473 62.6805 21.6464C61.7196 22.8317 61.0444 24.1649 60.5407 25.6502ZM51.7252 14.4727C51.3257 15.8089 50.9191 17.143 50.532 18.4828C50.4398 18.8021 50.4129 19.1402 50.3559 19.4697C50.4654 19.4262 50.5186 19.3747 50.5613 19.3157C51.5416 17.9595 52.5054 16.591 53.504 15.2484C54.77 13.5462 55.9201 11.7761 56.8558 9.8689C57.4912 8.57366 58.1543 7.28854 58.4586 5.86573C58.5421 5.47528 58.5416 5.05474 58.5056 4.65464C58.4755 4.31877 58.1277 3.931 57.7185 3.96952C57.289 4.00994 56.9784 4.24696 56.6722 4.50755C55.9723 5.10297 55.4973 5.86871 55.0913 6.67298C54.5031 7.83824 53.9097 9.00421 53.3973 10.2035C52.8038 11.5926 52.2957 13.0181 51.7252 14.4727Z" fill="#BBBBBB"></path></g><defs><clipPath id="clip0_1377_4457"><rect width="77" height="37" fill="white"></rect></clipPath></defs></svg>