<svg xmlns="http://www.w3.org/2000/svg" width="348" height="37" viewBox="0 0 348 37" fill="none"><g clip-path="url(#clip0_1376_5440)"><path d="M0.135986 0.876569C4.23573 0.817113 8.33548 0.819194 12.4352 0.816532C15.279 0.814685 18.1301 0.825806 20.9268 1.38265C24.2211 2.03854 27.2328 3.31076 29.7726 5.62351C32.4847 8.09312 33.9801 11.1849 34.4806 14.7312C35.0625 18.8544 34.6036 22.9012 32.7385 26.6751C30.9403 30.3137 28.1049 32.8966 24.3575 34.4824C22.0312 35.4668 19.6199 36.0556 17.0993 36.186C15.9277 36.2467 14.7546 36.3107 13.5819 36.3147C9.14246 36.3297 4.70292 36.3207 0.199694 36.3207C0.135986 36.043 0.135986 35.7653 0.184608 35.4351C0.609501 35.0137 1.07685 34.7005 1.34383 34.2645C1.97625 33.2317 2.02162 32.0275 2.02604 30.8642C2.05224 23.9629 2.04821 17.0613 2.03283 10.1599C2.02886 8.37765 1.98434 6.59363 1.88966 4.81409C1.82137 3.53039 1.40892 2.38649 0.135986 1.76926C0.135986 1.49154 0.135986 1.21381 0.135986 0.876569ZM7.74866 25.9145C7.74902 27.8409 7.7499 29.7672 7.74926 31.6936C7.74914 32.0442 7.72234 32.3884 8.2478 32.3748C11.6527 32.2872 15.0704 32.621 18.4579 31.9738C20.948 31.498 23.2306 30.5832 25.0769 28.8224C27.7115 26.3097 28.5547 23.0335 28.6519 19.5466C28.6955 17.9819 28.5024 16.3925 28.2487 14.8418C27.8672 12.5093 26.9376 10.3786 25.2824 8.65188C22.8317 6.09536 19.6704 5.10931 16.2583 4.92511C13.729 4.78858 11.1866 4.8969 8.64999 4.89857C7.75359 4.89915 7.74965 4.90241 7.74949 5.78944C7.74827 12.4524 7.74873 19.1154 7.74866 25.9145Z" fill="#BBBBBB"></path><path d="M215.533 0.136719C215.748 0.227637 215.889 0.372549 216.052 0.401487C219.199 0.963197 222.063 2.19223 224.505 4.25005C227.439 6.72147 229.381 9.86427 230.252 13.6141C231.557 19.2364 230.729 24.5202 227.443 29.3056C224.628 33.4056 220.706 35.8656 215.803 36.7453C215.417 36.8146 215.039 36.9334 214.652 37.0829C212.921 37.1367 211.196 37.1367 209.407 37.1367C209.214 37.0474 209.093 36.8961 208.955 36.8778C206.073 36.4961 203.391 35.5606 200.997 33.9032C197.067 31.1824 194.639 27.4374 193.732 22.7547C193.447 21.283 193.281 19.7524 193.333 18.2582C193.484 13.9301 194.837 10.0049 197.62 6.62336C200.45 3.1864 204.091 1.17365 208.442 0.384277C208.518 0.370432 208.583 0.291235 208.658 0.189627C210.932 0.136718 213.201 0.136718 215.533 0.136719ZM207.379 4.76072C204.294 5.83807 202.097 7.88171 200.786 10.8684C199.552 13.6801 199.226 16.6159 199.527 19.6645C199.805 22.4835 200.667 25.0707 202.237 27.4211C203.69 29.598 205.608 31.2221 208.049 32.1956C210.124 33.0233 212.265 33.2419 214.483 32.9304C218.248 32.4014 221.116 30.522 222.921 27.1921C224.898 23.5451 225.121 19.6156 224.345 15.6128C223.658 12.0678 222.051 9.01246 219.157 6.76697C215.64 4.03804 211.721 3.42149 207.379 4.76072Z" fill="#BBBBBB"></path><path d="M348.136 36.2595C344.948 36.319 341.76 36.319 338.352 36.319C338.55 35.9025 338.601 35.5495 338.799 35.4187C339.866 34.7141 340.324 33.645 340.357 32.4793C340.466 28.5872 340.471 24.6923 340.525 20.7986C340.531 20.3658 340.323 20.2559 339.941 20.2662C339.397 20.2808 338.853 20.2678 338.31 20.2678C332.669 20.2677 327.028 20.2674 321.387 20.2682C320.408 20.2683 320.406 20.2704 320.405 21.2153C320.404 24.4118 320.358 27.6093 320.428 30.8043C320.457 32.1142 320.452 33.4934 321.329 34.6197C321.573 34.9329 321.927 35.1583 322.188 35.4612C322.317 35.6109 322.414 35.8518 322.396 36.0389C322.386 36.144 322.112 36.3026 321.956 36.303C318.989 36.3122 316.021 36.3016 313.054 36.2929C313.012 36.2927 312.97 36.2647 312.747 36.185C312.858 35.8926 312.884 35.4672 313.098 35.3252C314.092 34.666 314.388 33.6496 314.534 32.5973C314.673 31.595 314.688 30.57 314.689 29.5549C314.701 22.0058 314.7 14.4566 314.689 6.9075C314.688 6.11958 314.627 5.32815 314.537 4.54485C314.421 3.528 314.058 2.60816 313.197 1.98059C312.806 1.69593 312.704 1.36964 312.892 0.863176C313.102 0.848824 313.344 0.818325 313.586 0.818023C316.282 0.814651 318.978 0.808775 321.673 0.827872C321.923 0.829639 322.171 0.998173 322.42 1.08927C322.282 1.36702 322.214 1.73687 321.993 1.90666C320.993 2.67553 320.589 3.73479 320.555 4.91537C320.468 7.92389 320.449 10.9344 320.406 13.9442C320.399 14.4428 320.432 14.9435 320.398 15.4399C320.361 15.9805 320.527 16.1981 321.112 16.1965C327.342 16.1789 333.572 16.1795 339.802 16.196C340.37 16.1975 340.537 16.0096 340.533 15.454C340.512 12.4164 340.555 9.37798 340.504 6.34106C340.488 5.40631 340.35 4.44075 340.065 3.55491C339.872 2.95361 339.312 2.47462 338.939 1.92509C338.766 1.67012 338.648 1.37742 338.506 1.10182C338.751 1.00656 338.995 0.830052 339.241 0.828418C342.164 0.808995 345.086 0.815625 348.072 0.815369C348.136 1.09304 348.136 1.37077 348.089 1.71378C347.307 2.23672 346.746 2.8532 346.571 3.7108C346.405 4.52252 346.25 5.35506 346.247 6.17889C346.224 14.4395 346.22 22.7002 346.251 30.9607C346.255 31.8692 346.43 32.7982 346.671 33.678C346.875 34.4262 347.226 35.1727 348.136 35.3668C348.136 35.6445 348.136 35.9222 348.136 36.2595Z" fill="#BBBBBB"></path><path d="M250.325 37.1354C250.087 37.0442 249.921 36.8999 249.737 36.8697C246.684 36.3689 243.907 35.2916 241.722 33.005C239.967 31.1688 238.965 28.9368 238.597 26.4546C238.379 24.9885 238.32 23.4888 238.311 22.0034C238.278 16.8811 238.304 11.7584 238.292 6.63587C238.29 5.89341 238.238 5.14543 238.136 4.41027C238.002 3.44515 237.593 2.61004 236.813 1.97197C236.349 1.59325 236.372 1.56575 236.476 0.865817C236.701 0.850003 236.942 0.818616 237.183 0.818304C239.878 0.814809 242.574 0.809187 245.269 0.827494C245.521 0.829205 245.772 0.990349 246.023 1.07746C245.888 1.35688 245.826 1.73578 245.605 1.89886C244.531 2.69087 244.197 3.82356 244.158 5.04326C244.069 7.84709 244.033 10.6531 244.013 13.4585C243.99 16.6996 243.969 19.9416 244.023 23.182C244.054 25.0427 244.382 26.8733 245.375 28.4945C246.594 30.4835 248.384 31.7023 250.666 32.1704C254.037 32.8621 257.271 32.6882 260.131 30.5015C261.675 29.3208 262.511 27.6569 262.87 25.8114C263.157 24.3392 263.275 22.8156 263.292 21.3128C263.344 16.7121 263.339 12.1102 263.292 7.5095C263.28 6.32548 263.077 5.13615 262.877 3.96369C262.727 3.08354 262.142 2.45148 261.449 1.89864C261.23 1.72353 261.161 1.35881 261.023 1.08084C261.274 0.992605 261.523 0.829717 261.775 0.827714C264.198 0.808385 266.622 0.815139 269.045 0.817713C269.268 0.817949 269.491 0.840866 269.726 0.853957C269.926 1.33834 269.851 1.68294 269.426 1.97951C268.271 2.78543 267.861 3.99876 267.811 5.31748C267.718 7.78117 267.682 10.2478 267.667 12.7135C267.644 16.3626 267.722 20.0133 267.641 23.6608C267.579 26.448 266.922 29.1174 265.35 31.4753C263.503 34.2463 260.843 35.8281 257.649 36.5846C257.004 36.7373 256.357 36.8804 255.705 37.0816C253.928 37.1354 252.158 37.1354 250.325 37.1354Z" fill="#BBBBBB"></path><path d="M153.084 16.6392C152.881 18.3089 152.696 19.9195 152.487 21.5269C152.238 23.4453 151.964 25.3604 151.707 27.2778C151.528 28.6153 151.293 29.9497 151.204 31.2936C151.098 32.896 151.173 34.4782 152.792 35.4646C152.972 35.5744 153.009 35.92 153.146 36.2321C152.82 36.2738 152.645 36.3152 152.47 36.3155C149.933 36.3199 147.396 36.3249 144.859 36.3072C144.656 36.3058 144.327 36.1781 144.284 36.0389C144.233 35.8716 144.365 35.5302 144.521 35.4345C146.099 34.4693 146.534 32.8734 146.795 31.2323C147.335 27.8334 147.808 24.4235 148.291 21.0156C148.808 17.3624 149.297 13.7052 149.815 10.052C150.257 6.93361 150.722 3.81845 151.178 0.702099C151.188 0.637326 151.218 0.575645 151.269 0.422315C152.03 0.422315 152.819 0.380699 153.599 0.451277C153.796 0.469147 154.014 0.818437 154.133 1.0598C155.922 4.71011 157.699 8.36694 159.475 12.024C161.684 16.5744 163.892 21.1257 166.096 25.6785C166.367 26.2371 166.613 26.8076 166.952 27.5523C167.503 26.4551 167.977 25.5409 168.425 24.6146C169.615 22.1554 170.789 19.6882 171.98 17.2293C174.184 12.6768 176.398 8.1287 178.604 3.5768C179.037 2.68324 179.425 1.76663 179.894 0.892374C180.013 0.66952 180.346 0.463822 180.603 0.432226C181.161 0.363683 181.737 0.373551 182.297 0.435136C182.488 0.456191 182.783 0.708784 182.809 0.887254C183.205 3.67227 183.552 6.4641 183.935 9.25108C184.412 12.7276 184.924 16.1995 185.398 19.6765C185.787 22.5299 186.12 25.3908 186.521 28.2425C186.733 29.7551 187.01 31.26 187.306 32.759C187.519 33.8447 187.954 34.8165 188.952 35.4498C189.104 35.5461 189.175 35.8566 189.173 36.0668C189.172 36.1518 188.875 36.3053 188.712 36.3062C185.79 36.3208 182.867 36.3208 179.945 36.3059C179.784 36.3051 179.486 36.1429 179.488 36.0636C179.495 35.8521 179.571 35.5511 179.726 35.4512C180.696 34.8265 181.148 33.9474 181.063 32.8173C180.912 30.82 180.743 28.8236 180.546 26.8303C180.384 25.195 180.178 23.564 179.98 21.9324C179.728 19.8552 179.463 17.7797 179.208 15.7027C179.089 14.724 178.982 13.7436 178.849 12.5897C178.67 12.8924 178.564 13.0496 178.48 13.2183C175.869 18.4808 173.257 23.7427 170.653 29.009C169.622 31.0944 168.601 33.1848 167.601 35.2851C167.377 35.7552 167.083 35.8809 166.568 35.939C165.464 36.0637 164.906 35.6669 164.427 34.639C162.807 31.1581 161.05 27.7411 159.36 24.2926C157.561 20.6216 155.779 16.9423 153.987 13.2677C153.921 13.1324 153.831 13.0089 153.665 12.7373C153.459 14.1191 153.275 15.349 153.084 16.6392Z" fill="#BBBBBB"></path><path d="M108.807 34.6406C109.211 34.8946 109.555 35.1609 109.939 35.3415C110.351 35.5355 110.467 35.7957 110.281 36.2752C110.047 36.2887 109.782 36.3166 109.518 36.3172C107.728 36.3211 105.938 36.2892 104.149 36.3297C102.922 36.3575 102.014 35.8226 101.316 34.8905C98.7392 31.4466 96.1818 27.9879 93.6128 24.538C93.3711 24.2134 93.0953 23.9146 92.8427 23.5979C91.9516 22.481 90.7964 22.0045 89.381 22.1746C88.8337 22.2404 88.5108 22.0388 88.2886 21.5142C87.963 20.7456 87.5445 20.017 87.1804 19.2641C86.8348 18.5496 86.9428 18.3703 87.7122 18.3659C88.8903 18.3591 90.0732 18.4307 91.2454 18.3478C93.191 18.2103 95.0177 17.7418 96.4249 16.2175C97.9219 14.5959 98.2975 12.6487 98.09 10.563C97.9481 9.13754 97.5217 7.80756 96.4219 6.74012C95.3084 5.65928 93.964 5.07905 92.5014 4.93285C90.3499 4.71779 88.1761 4.73363 86.0138 4.61499C85.3666 4.57948 85.2215 4.83354 85.2226 5.43386C85.2383 13.8221 85.2189 22.2104 85.2522 30.5986C85.2562 31.6011 85.405 32.6383 85.7028 33.5919C85.9031 34.2332 86.4939 34.7487 86.8897 35.3342C87.0387 35.5547 87.1306 35.8139 87.2485 36.0554C87.0439 36.143 86.8397 36.3056 86.6346 36.3069C83.8481 36.3238 81.0613 36.3236 78.2748 36.3078C78.0648 36.3066 77.8556 36.1543 77.646 36.0722C77.7494 35.8261 77.7851 35.4974 77.9675 35.3479C78.8962 34.5864 79.2355 33.5375 79.3645 32.4316C79.4949 31.3136 79.5153 30.1783 79.5171 29.0505C79.5292 21.4784 79.5393 13.9062 79.5035 6.33427C79.499 5.37926 79.3297 4.39082 79.0352 3.48342C78.8384 2.87732 78.2648 2.40004 77.8998 1.83909C77.7581 1.62123 77.6595 1.32715 77.6769 1.07729C77.6839 0.977381 78.0567 0.828903 78.2635 0.828146C82.2735 0.813464 86.2855 0.742886 90.2929 0.846387C92.5774 0.905391 94.8714 1.03382 97.1015 1.73749C100.702 2.87336 103.203 5.02874 103.912 8.85593C104.739 13.3173 103.288 17.4039 98.8894 19.7371C98.1844 20.1111 97.4082 20.3504 96.6798 20.6458C97.3936 21.3105 98.1575 21.9058 98.7794 22.6242C100.193 24.2575 101.539 25.9504 102.91 27.6208C104.839 29.9711 106.501 32.5456 108.807 34.6406Z" fill="#BBBBBB"></path><path d="M61.6236 15.3149C63.5388 19.5573 65.4141 23.7612 67.3328 27.9453C68.235 29.9126 69.1833 31.8613 70.1909 33.7761C70.4963 34.3566 71.0844 34.7837 71.5146 35.3046C71.7115 35.543 71.8395 35.8384 72.0848 36.2538C71.6001 36.2864 71.3586 36.3165 71.117 36.3168C68.1495 36.32 65.1819 36.3252 62.2145 36.3073C61.9648 36.3058 61.5894 36.2112 61.4938 36.0377C61.3074 35.6991 61.6028 35.4997 61.9064 35.3274C63.0294 34.6901 63.197 33.9657 62.8253 32.5129C62.4376 30.9979 61.7252 29.5655 61.1446 28.101C60.97 27.6605 60.699 27.2497 60.5826 26.7968C60.3843 26.0257 59.9581 25.8169 59.1714 25.8249C54.9584 25.8679 50.7448 25.8481 46.5314 25.8412C46.1019 25.8405 45.7446 25.8601 45.5482 26.3485C44.8002 28.2094 43.9985 30.0491 43.276 31.9196C43.0702 32.4524 42.9618 33.0682 42.9923 33.6361C43.0352 34.434 43.5746 34.9613 44.2591 35.3621C44.4634 35.4817 44.5616 35.783 44.7084 36.001C44.4968 36.1068 44.2859 36.3028 44.0735 36.3045C41.4233 36.3254 38.7729 36.3238 36.1226 36.307C35.9158 36.3057 35.7099 36.147 35.5037 36.0614C35.6283 35.8305 35.694 35.5009 35.8875 35.385C36.9433 34.7526 37.6398 33.8031 38.1366 32.7387C39.7387 29.3062 41.2787 25.8447 42.8436 22.3948C43.9708 19.9099 45.1036 17.4274 46.2267 14.9406C47.878 11.2841 49.5222 7.6243 51.171 3.96663C51.6251 2.95932 52.0992 1.96073 52.5349 0.945607C52.7121 0.53295 52.9745 0.433453 53.4105 0.388426C54.48 0.277964 55.0597 0.582474 55.5285 1.67779C57.4364 6.13528 59.4899 10.5304 61.4882 14.9492C61.5346 15.0517 61.5641 15.1618 61.6236 15.3149ZM58.3328 21.7926C58.3098 21.7055 58.2978 21.6136 58.2621 21.5319C56.8368 18.2687 55.4109 15.0056 53.9808 11.7445C53.6719 11.0402 53.3465 10.3432 52.9637 9.49937C51.0935 13.7839 49.292 17.9109 47.4766 22.0699C47.6993 22.1285 47.7637 22.1602 47.8283 22.1603C51.2021 22.165 54.5759 22.1702 57.9496 22.1575C58.0875 22.157 58.2248 21.9847 58.3328 21.7926Z" fill="#BBBBBB"></path><path d="M113.71 5.48149C112.781 5.8175 112.11 6.41944 111.512 7.10665C111.203 7.4619 110.9 7.51513 110.455 7.16358C110.67 5.77301 110.89 4.33242 111.117 2.89301C111.226 2.20484 111.324 1.51307 111.483 0.836168C111.522 0.671053 111.795 0.425976 111.939 0.440032C120.181 1.24615 128.443 0.640188 136.693 0.796022C137.945 0.819659 139.204 0.602971 140.454 0.454513C140.903 0.401211 141.047 0.531174 141.113 0.967238C141.399 2.8565 141.733 4.73845 142.012 6.62861C142.046 6.85381 141.916 7.18894 141.744 7.33992C141.433 7.61395 141.186 7.38525 140.975 7.09586C139.996 5.75649 138.575 5.1579 137.011 5.06218C134.622 4.91594 132.222 4.95563 129.827 4.88944C129.284 4.87443 129.132 5.07434 129.133 5.59644C129.145 14.0961 129.121 22.5958 129.165 31.0952C129.171 32.268 129.268 33.5085 130.079 34.4934C130.358 34.8326 130.764 35.0656 131.059 35.3946C131.201 35.5531 131.276 35.8238 131.269 36.0399C131.266 36.1368 130.985 36.3034 130.829 36.304C127.704 36.3169 124.578 36.3108 121.453 36.3046C121.367 36.3044 121.282 36.2618 121.008 36.1885C121.179 35.8778 121.255 35.5197 121.471 35.3861C122.739 34.5986 123.17 33.3675 123.278 31.9995C123.386 30.6498 123.423 29.2916 123.425 27.937C123.438 20.5706 123.432 13.2043 123.431 5.8379C123.431 4.90122 123.428 4.89879 122.511 4.89783C120.789 4.89603 119.064 4.82806 117.348 4.92102C116.145 4.98616 114.954 5.2727 113.71 5.48149Z" fill="#BBBBBB"></path><path d="M297.703 0.815745C299.692 0.769286 301.612 0.73301 303.532 0.669829C304.07 0.652119 304.627 0.627636 305.137 0.475537C305.719 0.301569 305.878 0.586498 305.951 1.03212C306.157 2.27566 306.346 3.52187 306.536 4.7678C306.642 5.45734 306.752 6.14685 306.826 6.84C306.842 6.9942 306.756 7.25635 306.646 7.30465C306.474 7.3796 306.2 7.38374 306.044 7.29135C305.798 7.14551 305.595 6.9107 305.407 6.68579C304.467 5.56038 303.159 5.14255 301.803 5.06263C299.391 4.92042 296.968 4.95294 294.55 4.89C294.041 4.87674 293.889 5.06454 293.89 5.56082C293.901 13.6301 293.881 21.6995 293.917 29.7686C293.922 30.9521 294.123 32.1446 294.336 33.314C294.491 34.1604 295.037 34.8007 295.756 35.3047C295.968 35.4536 296.046 35.7937 296.186 36.0461C295.939 36.137 295.692 36.3054 295.445 36.3069C292.545 36.3253 289.646 36.3194 286.747 36.317C286.546 36.3168 286.345 36.2931 286.115 36.2784C285.975 35.8658 285.941 35.5536 286.392 35.2975C287.473 34.6839 287.872 33.6245 288.031 32.4819C288.151 31.6137 288.18 30.7271 288.181 29.8486C288.192 21.87 288.188 13.8914 288.187 5.91272C288.187 4.89902 288.185 4.89734 287.207 4.89676C285.372 4.89565 283.534 4.82912 281.703 4.91727C280.111 4.99398 278.494 5.1471 277.191 6.25744C276.937 6.474 276.685 6.70752 276.488 6.97448C276.236 7.31722 275.939 7.59187 275.554 7.30738C275.394 7.18916 275.363 6.78664 275.399 6.5312C275.657 4.70532 275.956 2.88537 276.22 1.0604C276.293 0.55626 276.445 0.408709 277.015 0.486906C278.329 0.667326 279.661 0.793799 280.987 0.801657C286.536 0.834556 292.086 0.815663 297.703 0.815745Z" fill="#BBBBBB"></path></g><defs><clipPath id="clip0_1376_5440"><rect width="348" height="37" fill="white"></rect></clipPath></defs></svg>