<svg xmlns="http://www.w3.org/2000/svg" width="177" height="37" viewBox="0 0 177 37" fill="none"><g clip-path="url(#clip0_1377_4403)"><path d="M96.7748 3.84213C98.2095 1.36364 101.099 0.0570042 103.898 0.0321747C106.453 -0.132393 109.342 0.291491 111.132 2.3062C110.222 3.50304 109.352 4.72484 108.442 5.92165C107.428 4.75971 106.593 3.12392 104.953 2.79479C103.338 2.2961 101.309 3.13391 100.889 4.85936C100.209 7.59715 100.619 10.4595 100.519 13.2523H105.763V16.3692H100.514C100.514 21.067 100.514 25.7644 100.509 30.4622C100.489 31.7937 100.704 33.1102 100.954 34.4167C102.154 34.9702 103.448 35.2545 104.773 35.2794C104.768 35.6036 104.763 36.2569 104.758 36.586C100.469 36.3067 96.1747 36.2219 91.8906 36.581C91.8906 36.3067 91.9006 35.7582 91.9006 35.4839C93.2553 35.2445 94.9349 34.6162 94.99 32.9905C95.5149 27.47 95.1599 21.9096 95.2649 16.3693C94.2201 16.3693 93.1753 16.3693 92.1305 16.3643C92.1355 15.8956 92.1455 15.4218 92.1505 14.953C93.2102 14.4643 94.2451 13.9208 95.2647 13.3622C95.2647 10.1606 95.0748 6.69962 96.7744 3.8423L96.7748 3.84213Z" fill="#BBBBBB"></path><path d="M174.093 0.0273438C171.319 0.665655 168.51 1.20407 165.66 1.32874C165.63 1.58806 165.575 2.10657 165.55 2.3659C166.61 2.68507 168.34 2.60069 168.415 4.07682C168.84 7.06905 168.54 10.1054 168.625 13.1175C164.54 12.4194 159.976 12.4643 156.502 15.0026C152.698 17.6606 151.393 22.6178 151.773 27.0363C151.988 30.4623 153.708 33.9781 156.822 35.6486C160.531 37.6832 165.275 37.2644 168.75 34.9205C168.775 35.6137 168.79 36.3068 168.795 37C171.484 36.3168 174.234 35.9328 176.998 35.7732V34.5761C173.08 33.9105 174.164 32.1017 173.889 29.0261C173.894 19.3616 173.744 9.69193 174.093 0.0280057L174.093 0.0273438ZM163.93 15.6126C165.584 15.5951 167.266 16.1223 168.625 17.0424C168.63 22.2436 168.615 27.4449 168.635 32.6461C165.725 33.9776 161.791 33.8828 159.511 31.4193C157.557 29.3347 157.227 26.2829 157.402 23.5599C157.597 21.0814 158.117 18.2489 160.286 16.7128C161.373 15.9688 162.643 15.6258 163.93 15.6122L163.93 15.6126Z" fill="#BBBBBB"></path><path d="M9.18632 3.20357C12.4806 3.0041 15.7849 3.21853 19.0443 3.67732C18.8494 5.99124 18.8694 8.32017 19.0493 10.634C18.7344 10.634 18.1045 10.639 17.7896 10.639C17.5396 9.19281 17.2797 7.43736 15.735 6.794C13.4455 5.83152 10.7659 5.73679 8.39139 6.42498C5.28708 7.34257 4.77712 11.9004 7.08667 13.8904C9.9761 16.4138 13.5154 18.0645 16.4748 20.513C21.1087 24.1933 20.5039 32.7608 15.0051 35.3389C10.3762 37.4733 4.94217 36.9347 0.163054 35.5933C0.192921 33.3007 0.10802 31.0081 0.00292969 28.7183C0.347847 28.7133 1.04271 28.6983 1.39264 28.6933C1.63759 30.1345 1.86253 31.9049 3.32724 32.6478C5.94669 34.114 9.32595 34.2337 12.0456 32.972C15.44 31.1019 14.815 25.6961 11.6406 23.8758C8.88618 21.7598 5.72185 20.1955 3.17729 17.8064C0.35783 15.1932 0.00799049 10.6152 1.82273 7.34874C3.30727 4.7455 6.30179 3.44416 9.18624 3.20469L9.18632 3.20357Z" fill="#BBBBBB"></path><path d="M28.7372 8.10547C28.9972 8.12043 29.522 8.14536 29.782 8.16032C29.777 9.90074 29.777 11.6362 29.777 13.3767H37.7755V16.369H29.777C29.807 20.558 29.712 24.752 29.822 28.9459C29.932 30.5417 29.9769 32.5316 31.4716 33.5091C33.3563 34.6261 35.6108 33.928 37.4955 33.1949C38.0754 34.6112 36.6007 35.4041 35.5759 35.9926C33.1714 37.1546 30.2371 37.2792 27.7525 36.3118C25.6279 35.5189 24.6031 33.2001 24.493 31.0755C24.2381 26.1783 24.493 21.2714 24.533 16.3693H21.4085C21.4035 16.0401 21.3986 15.716 21.3936 15.3918C24.788 14.1152 27.0773 11.1979 28.7371 8.10603L28.7372 8.10547Z" fill="#BBBBBB"></path><path d="M50.142 12.5865C46.538 12.5496 42.9032 14.3354 41.7453 17.9455C42.0602 18.1251 42.7001 18.479 43.02 18.6585C44.4047 16.2199 47.639 14.9683 50.1883 16.3747C52.1879 17.2823 52.3582 19.7207 52.3182 21.6309C49.1738 22.6382 45.9193 23.4313 42.95 24.9075C39.3907 26.7826 38.9308 32.0984 41.4803 34.9759C44.4848 37.7237 49.4987 37.2796 52.4681 34.6815C53.3729 36.4668 55.5124 37.1501 57.3769 36.6265C59.0016 36.3123 60.0762 34.9609 61.141 33.8188C60.9561 33.6094 60.5815 33.1853 60.3965 32.9709C59.7266 33.1405 58.9716 33.669 58.3168 33.1554C57.4669 32.5719 57.5717 31.4001 57.5117 30.4974C57.5717 26.6276 57.7867 22.7481 57.5817 18.8733C57.4818 16.8686 56.582 14.8187 54.8024 13.7665C53.412 12.9966 51.7803 12.6033 50.142 12.5865ZM52.2628 24.6528C52.2828 27.261 52.2631 29.8689 52.2831 32.4771C50.6085 33.2202 48.6188 33.9084 46.8541 33.0557C44.6946 31.9087 44.7847 28.4779 46.5694 27.0367C48.284 25.8598 50.3181 25.3061 52.2628 24.6528Z" fill="#BBBBBB"></path><path d="M119.039 12.6846C116.405 12.7145 113.685 13.3678 111.626 15.0783C108.561 17.5518 107.232 21.641 107.367 25.4808C107.352 28.7671 108.377 32.273 110.971 34.4575C114.036 37.1205 118.489 37.3846 122.304 36.5917C126.328 35.709 129.352 32.1933 130.207 28.2536C131.127 24.1645 130.742 19.4121 127.922 16.1109C125.753 13.5776 122.279 12.6197 119.039 12.6846ZM119.074 15.4757C120.49 15.5031 121.891 16.0832 122.799 17.2077C124.443 19.2174 124.883 21.9203 125.003 24.4436C125.023 27.1914 124.673 30.1582 122.939 32.4023C121.234 34.6015 117.56 34.8459 115.595 32.8661C114.091 31.4747 113.53 29.4054 113.191 27.4604C112.836 24.8772 112.926 22.1891 113.741 19.7006C114.311 18.035 115.42 16.3495 117.18 15.7809C117.784 15.5643 118.431 15.4628 119.075 15.4753L119.074 15.4757Z" fill="#BBBBBB"></path><path d="M63.0214 14.2697C65.8159 14.2248 68.6503 13.9356 71.2297 12.7836C71.3197 13.4469 71.3897 14.1101 71.4447 14.7834C74.4091 12.8484 78.2382 12.0954 81.6326 13.2923C84.0621 14.1051 85.7618 16.479 85.9767 18.9923C86.4766 23.7748 85.7518 28.622 86.3916 33.3945C86.4616 34.8956 88.0813 35.2347 89.2562 35.4791C89.2612 35.7583 89.2612 36.3169 89.2662 36.5961C85.2971 36.2819 77.3487 36.5812 77.3487 36.5812L77.3336 35.4504C77.3336 35.4504 80.2007 34.6462 80.3829 33.8234C81.0378 30.2728 80.8828 26.6024 80.8478 22.9969C80.7179 20.8426 80.7728 18.1496 78.7083 16.8381C76.4937 15.5664 73.7793 16.1549 71.5149 16.9777C71.5298 21.6454 71.5149 26.318 71.5149 30.986C71.5798 32.2327 71.4898 33.654 72.3047 34.6911C72.9895 35.1648 73.8494 35.2496 74.6342 35.4691C74.6392 35.7483 74.6442 36.3118 74.6442 36.5961C70.7299 36.3418 66.8058 36.1772 62.8965 36.5911C62.8965 36.3118 62.9065 35.7583 62.9065 35.484C64.0963 35.2097 65.6659 34.8357 65.8908 33.3995C66.4357 29.9587 66.0158 26.4428 66.1457 22.9719C66.0957 20.9921 66.3157 18.9873 65.9658 17.0324C65.6908 15.6959 64.0562 15.7707 63.0263 15.5064C63.0263 15.1972 63.0214 14.5789 63.0214 14.2697Z" fill="#BBBBBB"></path><path d="M132.876 14.1651C135.675 14.1252 138.474 13.7462 141.134 12.8535L141.209 14.9081C143.898 12.7488 147.953 12.2002 150.817 14.3396L147.83 18.8873C146.435 16.7429 143.606 16.2243 141.372 17.3164C141.372 17.3164 141.357 26.7566 141.387 31.4742C141.502 32.5264 141.337 33.8928 142.326 34.5809C143.281 35.1394 144.441 35.1095 145.506 35.279C145.506 35.6032 145.501 36.2615 145.501 36.5856C141.207 36.2964 136.902 36.2365 132.608 36.5756L132.607 35.2791C133.992 35.0436 135.433 34.5659 135.643 33.7431C136.237 31.7134 135.948 29.564 136.008 27.4744C135.948 24.1481 136.128 20.8168 135.928 17.4957C135.913 15.88 134.078 15.7354 132.888 15.501C132.89 15.043 132.88 14.5727 132.878 14.1645L132.876 14.1651Z" fill="#BBBBBB"></path></g><defs><clipPath id="clip0_1377_4403"><rect width="177" height="37" fill="white"></rect></clipPath></defs></svg>